<?xml version="1.0" encoding="UTF-8" standalone="no"?>
<!-- Generator: Adobe Illustrator 24.1.1, SVG Export Plug-In . SVG Version: 6.00 Build 0)  -->

<svg
   version="1.1"
   id="Capa_1"
   x="0px"
   y="0px"
   viewBox="0 0 540.49279 382.71447"
   xml:space="preserve"
   sodipodi:docname="logo-beemos.svg"
   width="540.4928"
   height="382.71448"
   inkscape:version="1.1 (c4e8f9e, 2021-05-24)"
   xmlns:inkscape="http://www.inkscape.org/namespaces/inkscape"
   xmlns:sodipodi="http://sodipodi.sourceforge.net/DTD/sodipodi-0.dtd"
   xmlns:xlink="http://www.w3.org/1999/xlink"
   xmlns="http://www.w3.org/2000/svg"
   xmlns:svg="http://www.w3.org/2000/svg"><defs
   id="defs2068" /><sodipodi:namedview
   id="namedview2066"
   pagecolor="#ffffff"
   bordercolor="#666666"
   borderopacity="1.0"
   inkscape:pageshadow="2"
   inkscape:pageopacity="0.0"
   inkscape:pagecheckerboard="0"
   showgrid="false"
   fit-margin-top="0"
   fit-margin-left="0"
   fit-margin-right="0"
   fit-margin-bottom="0"
   inkscape:zoom="1.1895019"
   inkscape:cx="269.86085"
   inkscape:cy="191.25652"
   inkscape:window-width="1920"
   inkscape:window-height="1027"
   inkscape:window-x="960"
   inkscape:window-y="25"
   inkscape:window-maximized="0"
   inkscape:current-layer="Capa_1" />
<style
   type="text/css"
   id="style1769">
	.st0{fill:#501287;}
	.st1{fill:#501288;}
	.st2{fill:#2B0D51;}
	.st3{fill:#7A7A7A;}
	.st4{fill:#6D6D6D;}
	.st5{fill:#4F4F4F;}
	.st6{fill:#999999;}
	.st7{display:none;fill:#FFF800;}
	.st8{fill:#FFF800;}
	.st9{clip-path:url(#SVGID_2_);}
	.st10{clip-path:url(#SVGID_4_);}
	.st11{fill:#FEFEFE;}
	.st12{fill:#FEFEFE;stroke:#501287;stroke-width:9.9698;stroke-miterlimit:10;}
	.st13{fill:#FEFEFE;stroke:#501287;stroke-width:9.9698;stroke-linecap:round;stroke-miterlimit:10;}
</style>
<ellipse
   class="st7"
   cx="-220.69931"
   cy="501.31448"
   rx="146.5"
   ry="52.5"
   id="ellipse1771" />
<g
   id="g2063"
   transform="translate(-84.099305,-162.98551)">
	<path
   class="st8"
   d="m 501.2,300 c -5.8,-4.6 -11.3,-4.9 -17.1,-5.1 -5.1,-0.2 -9.2,-2.9 -11.5,-8.1 -10.8,-23.8 -29.3,-36.2 -55.5,-36.4 -41.8,-0.2 -83.6,-0.3 -125.4,0 -25.9,0.2 -44.3,12.5 -55,36.1 -2.7,5.9 -7,8.5 -13.3,8.5 -4.6,0 -9.3,-0.2 -13.3,3.1 -5,-29.2 24.7,-83.2 60.4,-107.4 50.1,-33.9 103,-36.9 156,-7.9 45.2,24.7 69,64.7 74.7,117.2 z"
   id="path1773" />
	<g
   id="g1905">
		<defs
   id="defs1776">
			<path
   id="SVGID_1_"
   d="m 290.7,265.1 c -24,0.1 -43.6,19.8 -43.6,43.9 0,24.3 19.8,43.9 44.3,43.8 24.1,-0.1 43.7,-19.9 43.7,-43.9 -0.1,-24.3 -20,-43.9 -44.4,-43.8 z" />
		</defs>
		<clipPath
   id="SVGID_2_">
			<use
   xlink:href="#SVGID_1_"
   style="overflow:visible"
   id="use1778"
   x="0"
   y="0"
   width="100%"
   height="100%" />
		</clipPath>
		<g
   class="st9"
   clip-path="url(#SVGID_2_)"
   id="g1903">
			<polygon
   points="294,303.8 288.1,303.8 285.1,309 288.1,314.1 294,314.1 297,309 "
   id="polygon1781" />
			<polygon
   points="304,309.9 298.3,309.9 295.5,314.8 298.3,319.7 304,319.7 306.9,314.8 "
   id="polygon1783" />
			<polygon
   points="275.2,314.8 278.1,319.7 283.8,319.7 286.6,314.8 283.8,309.9 278.1,309.9 "
   id="polygon1785" />
			<polygon
   points="285.3,320.7 288.2,325.6 293.9,325.6 296.8,320.7 293.9,315.7 288.2,315.7 "
   id="polygon1787" />
			<polygon
   points="295.5,303.1 298.3,308.1 304,308.1 306.9,303.1 304,298.2 298.3,298.2 "
   id="polygon1789" />
			<polygon
   points="288.2,302.2 293.9,302.2 296.8,297.3 293.9,292.3 288.2,292.3 285.3,297.3 "
   id="polygon1791" />
			<polygon
   points="278.1,308.1 283.8,308.1 286.6,303.1 283.8,298.2 278.1,298.2 275.2,303.1 "
   id="polygon1793" />
			<polygon
   points="314.1,315.9 308.6,315.9 305.8,320.7 308.6,325.4 314.1,325.4 316.8,320.7 "
   id="polygon1795" />
			<polygon
   points="295.7,326.5 298.4,331.3 303.9,331.3 306.7,326.5 303.9,321.7 298.4,321.7 "
   id="polygon1797" />
			<polygon
   points="305.8,309 308.6,313.7 314.1,313.7 316.8,309 314.1,304.2 308.6,304.2 "
   id="polygon1799" />
			<polygon
   points="285.6,332.3 288.3,337.1 293.8,337.1 296.5,332.3 293.8,327.6 288.3,327.6 "
   id="polygon1801" />
			<polygon
   points="265.3,320.7 268,325.4 273.5,325.4 276.3,320.7 273.5,315.9 268,315.9 "
   id="polygon1803" />
			<polygon
   points="275.4,326.5 278.2,331.3 283.7,331.3 286.4,326.5 283.7,321.7 278.2,321.7 "
   id="polygon1805" />
			<polygon
   points="305.8,297.3 308.6,302 314.1,302 316.8,297.3 314.1,292.5 308.6,292.5 "
   id="polygon1807" />
			<polygon
   points="288.3,290.3 293.8,290.3 296.5,285.6 293.8,280.8 288.3,280.8 285.6,285.6 "
   id="polygon1809" />
			<polygon
   points="265.3,309 268,313.7 273.5,313.7 276.3,309 273.5,304.2 268,304.2 "
   id="polygon1811" />
			<polygon
   points="268,302 273.5,302 276.3,297.3 273.5,292.5 268,292.5 265.3,297.3 "
   id="polygon1813" />
			<polygon
   points="278.2,296.2 283.7,296.2 286.4,291.4 283.7,286.7 278.2,286.7 275.4,291.4 "
   id="polygon1815" />
			<polygon
   points="298.4,296.2 303.9,296.2 306.7,291.4 303.9,286.7 298.4,286.7 295.7,291.4 "
   id="polygon1817" />
			<polygon
   points="298.5,284.3 303.8,284.3 306.5,279.7 303.8,275.1 298.5,275.1 295.9,279.7 "
   id="polygon1819" />
			<polygon
   points="308.7,290.2 313.9,290.2 316.6,285.6 313.9,281 308.7,281 306,285.6 "
   id="polygon1821" />
			<polygon
   points="268.2,290.2 273.4,290.2 276.1,285.6 273.4,281 268.2,281 265.5,285.6 "
   id="polygon1823" />
			<polygon
   points="288.4,278.5 293.7,278.5 296.3,273.9 293.7,269.3 288.4,269.3 285.8,273.9 "
   id="polygon1825" />
			<polygon
   points="278.3,284.3 283.6,284.3 286.2,279.7 283.6,275.1 278.3,275.1 275.6,279.7 "
   id="polygon1827" />
			<polygon
   points="255.4,314.8 258,319.4 263.3,319.4 266,314.8 263.3,310.2 258,310.2 "
   id="polygon1829" />
			<polygon
   points="306,332.3 308.7,336.9 313.9,336.9 316.6,332.3 313.9,327.8 308.7,327.8 "
   id="polygon1831" />
			<polygon
   points="295.9,338.2 298.5,342.8 303.8,342.8 306.5,338.2 303.8,333.6 298.5,333.6 "
   id="polygon1833" />
			<polygon
   points="275.6,338.2 278.3,342.8 283.6,342.8 286.2,338.2 283.6,333.6 278.3,333.6 "
   id="polygon1835" />
			<polygon
   points="285.8,344 288.4,348.6 293.7,348.6 296.3,344 293.7,339.5 288.4,339.5 "
   id="polygon1837" />
			<polygon
   points="316.1,314.8 318.8,319.4 324.1,319.4 326.7,314.8 324.1,310.2 318.8,310.2 "
   id="polygon1839" />
			<polygon
   points="324.1,321.9 318.8,321.9 316.1,326.5 318.8,331.1 324.1,331.1 326.7,326.5 "
   id="polygon1841" />
			<polygon
   points="255.4,326.5 258,331.1 263.3,331.1 266,326.5 263.3,321.9 258,321.9 "
   id="polygon1843" />
			<polygon
   points="265.5,332.3 268.2,336.9 273.4,336.9 276.1,332.3 273.4,327.8 268.2,327.8 "
   id="polygon1845" />
			<polygon
   points="316.1,303.1 318.8,307.7 324.1,307.7 326.7,303.1 324.1,298.5 318.8,298.5 "
   id="polygon1847" />
			<polygon
   points="316.1,291.4 318.8,296 324.1,296 326.7,291.4 324.1,286.8 318.8,286.8 "
   id="polygon1849" />
			<polygon
   points="258,296 263.3,296 266,291.4 263.3,286.8 258,286.8 255.4,291.4 "
   id="polygon1851" />
			<polygon
   points="258,307.7 263.3,307.7 266,303.1 263.3,298.5 258,298.5 255.4,303.1 "
   id="polygon1853" />
			<polygon
   points="293.6,257.8 288.5,257.8 286,262.2 288.5,266.6 293.6,266.6 296.1,262.2 "
   id="polygon1855" />
			<polygon
   points="298.6,272.4 303.7,272.4 306.3,268 303.7,263.6 298.6,263.6 296.1,268 "
   id="polygon1857" />
			<polygon
   points="286,268 283.5,263.6 278.4,263.6 275.8,268 278.4,272.4 283.5,272.4 "
   id="polygon1859" />
			<polygon
   points="308.8,278.3 313.8,278.3 316.4,273.9 313.8,269.5 308.8,269.5 306.2,273.9 "
   id="polygon1861" />
			<polygon
   points="318.9,284.1 324,284.1 326.5,279.7 324,275.3 318.9,275.3 316.4,279.7 "
   id="polygon1863" />
			<polygon
   points="268.3,278.3 273.3,278.3 275.9,273.9 273.3,269.5 268.3,269.5 265.7,273.9 "
   id="polygon1865" />
			<polygon
   points="326.5,285.6 329,290 334.1,290 336.6,285.6 334.1,281.2 329,281.2 "
   id="polygon1867" />
			<polygon
   points="248,290 253.1,290 255.6,285.6 253.1,281.2 248,281.2 245.5,285.6 "
   id="polygon1869" />
			<polygon
   points="258.1,284.1 263.2,284.1 265.7,279.7 263.2,275.3 258.1,275.3 255.6,279.7 "
   id="polygon1871" />
			<polygon
   points="296.1,349.9 298.6,354.3 303.7,354.3 306.3,349.9 303.7,345.5 298.6,345.5 "
   id="polygon1873" />
			<polygon
   points="288.5,360.1 293.6,360.1 296.1,355.7 293.6,351.3 288.5,351.3 286,355.7 "
   id="polygon1875" />
			<polygon
   points="308.8,348.4 313.8,348.4 316.4,344 313.8,339.6 308.8,339.6 306.2,344 "
   id="polygon1877" />
			<polygon
   points="275.8,349.9 278.4,354.3 283.5,354.3 286,349.9 283.5,345.5 278.4,345.5 "
   id="polygon1879" />
			<polygon
   points="255.6,338.2 258.1,342.6 263.2,342.6 265.7,338.2 263.2,333.8 258.1,333.8 "
   id="polygon1881" />
			<polygon
   points="265.7,344 268.3,348.4 273.3,348.4 275.9,344 273.3,339.6 268.3,339.6 "
   id="polygon1883" />
			<polygon
   points="326.5,309 329,313.4 334.1,313.4 336.6,309 334.1,304.6 329,304.6 "
   id="polygon1885" />
			<polygon
   points="326.5,332.3 329,336.7 334.1,336.7 336.6,332.3 334.1,328 329,328 "
   id="polygon1887" />
			<polygon
   points="326.5,320.7 329,325.1 334.1,325.1 336.6,320.7 334.1,316.3 329,316.3 "
   id="polygon1889" />
			<polygon
   points="316.4,338.2 318.9,342.6 324,342.6 326.5,338.2 324,333.8 318.9,333.8 "
   id="polygon1891" />
			<polygon
   points="248,313.4 253.1,313.4 255.6,309 253.1,304.6 248,304.6 245.5,309 "
   id="polygon1893" />
			<polygon
   points="255.6,320.7 253.1,316.3 248,316.3 245.5,320.7 248,325.1 253.1,325.1 "
   id="polygon1895" />
			<polygon
   points="326.5,297.3 329,301.7 334.1,301.7 336.6,297.3 334.1,292.9 329,292.9 "
   id="polygon1897" />
			<polygon
   points="248,301.7 253.1,301.7 255.6,297.3 253.1,292.9 248,292.9 245.5,297.3 "
   id="polygon1899" />
			<polygon
   points="255.6,332.3 253.1,328 248,328 245.5,332.3 248,336.7 253.1,336.7 "
   id="polygon1901" />
		</g>
	</g>
	<g
   id="g2037">
		<defs
   id="defs1908">
			<path
   id="SVGID_3_"
   d="m 417.6,265.1 c -24,0.1 -43.6,19.8 -43.6,43.9 0,24.3 19.8,43.9 44.3,43.8 24.1,-0.1 43.7,-19.9 43.7,-43.9 -0.1,-24.3 -19.9,-43.9 -44.4,-43.8 z" />
		</defs>
		<clipPath
   id="SVGID_4_">
			<use
   xlink:href="#SVGID_3_"
   style="overflow:visible"
   id="use1910"
   x="0"
   y="0"
   width="100%"
   height="100%" />
		</clipPath>
		<g
   class="st10"
   clip-path="url(#SVGID_4_)"
   id="g2035">
			<polygon
   points="421,303.8 415.1,303.8 412.1,309 415.1,314.1 421,314.1 423.9,309 "
   id="polygon1913" />
			<polygon
   points="431,309.9 425.3,309.9 422.4,314.8 425.3,319.7 431,319.7 433.8,314.8 "
   id="polygon1915" />
			<polygon
   points="402.2,314.8 405,319.7 410.7,319.7 413.6,314.8 410.7,309.9 405,309.9 "
   id="polygon1917" />
			<polygon
   points="412.3,320.7 415.2,325.6 420.9,325.6 423.7,320.7 420.9,315.7 415.2,315.7 "
   id="polygon1919" />
			<polygon
   points="422.4,303.1 425.3,308.1 431,308.1 433.8,303.1 431,298.2 425.3,298.2 "
   id="polygon1921" />
			<polygon
   points="415.2,302.2 420.9,302.2 423.7,297.3 420.9,292.3 415.2,292.3 412.3,297.3 "
   id="polygon1923" />
			<polygon
   points="405,308.1 410.7,308.1 413.6,303.1 410.7,298.2 405,298.2 402.2,303.1 "
   id="polygon1925" />
			<polygon
   points="441,315.9 435.5,315.9 432.8,320.7 435.5,325.4 441,325.4 443.8,320.7 "
   id="polygon1927" />
			<polygon
   points="422.6,326.5 425.4,331.3 430.9,331.3 433.6,326.5 430.9,321.7 425.4,321.7 "
   id="polygon1929" />
			<polygon
   points="432.8,309 435.5,313.7 441,313.7 443.8,309 441,304.2 435.5,304.2 "
   id="polygon1931" />
			<polygon
   points="412.5,332.3 415.3,337.1 420.8,337.1 423.5,332.3 420.8,327.6 415.3,327.6 "
   id="polygon1933" />
			<polygon
   points="392.3,320.7 395,325.4 400.5,325.4 403.3,320.7 400.5,315.9 395,315.9 "
   id="polygon1935" />
			<polygon
   points="402.4,326.5 405.1,331.3 410.6,331.3 413.4,326.5 410.6,321.7 405.1,321.7 "
   id="polygon1937" />
			<polygon
   points="432.8,297.3 435.5,302 441,302 443.8,297.3 441,292.5 435.5,292.5 "
   id="polygon1939" />
			<polygon
   points="415.3,290.3 420.8,290.3 423.5,285.6 420.8,280.8 415.3,280.8 412.5,285.6 "
   id="polygon1941" />
			<polygon
   points="392.3,309 395,313.7 400.5,313.7 403.3,309 400.5,304.2 395,304.2 "
   id="polygon1943" />
			<polygon
   points="395,302 400.5,302 403.3,297.3 400.5,292.5 395,292.5 392.3,297.3 "
   id="polygon1945" />
			<polygon
   points="405.1,296.2 410.6,296.2 413.4,291.4 410.6,286.7 405.1,286.7 402.4,291.4 "
   id="polygon1947" />
			<polygon
   points="425.4,296.2 430.9,296.2 433.6,291.4 430.9,286.7 425.4,286.7 422.6,291.4 "
   id="polygon1949" />
			<polygon
   points="425.5,284.3 430.8,284.3 433.4,279.7 430.8,275.1 425.5,275.1 422.9,279.7 "
   id="polygon1951" />
			<polygon
   points="435.6,290.2 440.9,290.2 443.6,285.6 440.9,281 435.6,281 433,285.6 "
   id="polygon1953" />
			<polygon
   points="395.1,290.2 400.4,290.2 403.1,285.6 400.4,281 395.1,281 392.5,285.6 "
   id="polygon1955" />
			<polygon
   points="415.4,278.5 420.7,278.5 423.3,273.9 420.7,269.3 415.4,269.3 412.7,273.9 "
   id="polygon1957" />
			<polygon
   points="405.2,284.3 410.5,284.3 413.2,279.7 410.5,275.1 405.2,275.1 402.6,279.7 "
   id="polygon1959" />
			<polygon
   points="382.4,314.8 385,319.4 390.3,319.4 392.9,314.8 390.3,310.2 385,310.2 "
   id="polygon1961" />
			<polygon
   points="433,332.3 435.6,336.9 440.9,336.9 443.6,332.3 440.9,327.8 435.6,327.8 "
   id="polygon1963" />
			<polygon
   points="422.9,338.2 425.5,342.8 430.8,342.8 433.4,338.2 430.8,333.6 425.5,333.6 "
   id="polygon1965" />
			<polygon
   points="402.6,338.2 405.2,342.8 410.5,342.8 413.2,338.2 410.5,333.6 405.2,333.6 "
   id="polygon1967" />
			<polygon
   points="412.7,344 415.4,348.6 420.7,348.6 423.3,344 420.7,339.5 415.4,339.5 "
   id="polygon1969" />
			<polygon
   points="443.1,314.8 445.8,319.4 451,319.4 453.7,314.8 451,310.2 445.8,310.2 "
   id="polygon1971" />
			<polygon
   points="451,321.9 445.8,321.9 443.1,326.5 445.8,331.1 451,331.1 453.7,326.5 "
   id="polygon1973" />
			<polygon
   points="382.4,326.5 385,331.1 390.3,331.1 392.9,326.5 390.3,321.9 385,321.9 "
   id="polygon1975" />
			<polygon
   points="392.5,332.3 395.1,336.9 400.4,336.9 403.1,332.3 400.4,327.8 395.1,327.8 "
   id="polygon1977" />
			<polygon
   points="443.1,303.1 445.8,307.7 451,307.7 453.7,303.1 451,298.5 445.8,298.5 "
   id="polygon1979" />
			<polygon
   points="443.1,291.4 445.8,296 451,296 453.7,291.4 451,286.8 445.8,286.8 "
   id="polygon1981" />
			<polygon
   points="385,296 390.3,296 392.9,291.4 390.3,286.8 385,286.8 382.4,291.4 "
   id="polygon1983" />
			<polygon
   points="385,307.7 390.3,307.7 392.9,303.1 390.3,298.5 385,298.5 382.4,303.1 "
   id="polygon1985" />
			<polygon
   points="420.6,257.8 415.5,257.8 412.9,262.2 415.5,266.6 420.6,266.6 423.1,262.2 "
   id="polygon1987" />
			<polygon
   points="425.6,272.4 430.7,272.4 433.2,268 430.7,263.6 425.6,263.6 423.1,268 "
   id="polygon1989" />
			<polygon
   points="413,268 410.4,263.6 405.4,263.6 402.8,268 405.4,272.4 410.4,272.4 "
   id="polygon1991" />
			<polygon
   points="435.7,278.3 440.8,278.3 443.3,273.9 440.8,269.5 435.7,269.5 433.2,273.9 "
   id="polygon1993" />
			<polygon
   points="445.9,284.1 450.9,284.1 453.5,279.7 450.9,275.3 445.9,275.3 443.3,279.7 "
   id="polygon1995" />
			<polygon
   points="395.2,278.3 400.3,278.3 402.8,273.9 400.3,269.5 395.2,269.5 392.7,273.9 "
   id="polygon1997" />
			<polygon
   points="453.4,285.6 456,290 461.1,290 463.6,285.6 461.1,281.2 456,281.2 "
   id="polygon1999" />
			<polygon
   points="375,290 380.1,290 382.6,285.6 380.1,281.2 375,281.2 372.4,285.6 "
   id="polygon2001" />
			<polygon
   points="385.1,284.1 390.2,284.1 392.7,279.7 390.2,275.3 385.1,275.3 382.6,279.7 "
   id="polygon2003" />
			<polygon
   points="423.1,349.9 425.6,354.3 430.7,354.3 433.2,349.9 430.7,345.5 425.6,345.5 "
   id="polygon2005" />
			<polygon
   points="415.5,360.1 420.6,360.1 423.1,355.7 420.6,351.3 415.5,351.3 412.9,355.7 "
   id="polygon2007" />
			<polygon
   points="435.7,348.4 440.8,348.4 443.3,344 440.8,339.6 435.7,339.6 433.2,344 "
   id="polygon2009" />
			<polygon
   points="402.8,349.9 405.4,354.3 410.4,354.3 413,349.9 410.4,345.5 405.4,345.5 "
   id="polygon2011" />
			<polygon
   points="382.6,338.2 385.1,342.6 390.2,342.6 392.7,338.2 390.2,333.8 385.1,333.8 "
   id="polygon2013" />
			<polygon
   points="392.7,344 395.2,348.4 400.3,348.4 402.8,344 400.3,339.6 395.2,339.6 "
   id="polygon2015" />
			<polygon
   points="453.4,309 456,313.4 461.1,313.4 463.6,309 461.1,304.6 456,304.6 "
   id="polygon2017" />
			<polygon
   points="453.4,332.3 456,336.7 461.1,336.7 463.6,332.3 461.1,328 456,328 "
   id="polygon2019" />
			<polygon
   points="453.4,320.7 456,325.1 461.1,325.1 463.6,320.7 461.1,316.3 456,316.3 "
   id="polygon2021" />
			<polygon
   points="443.3,338.2 445.9,342.6 450.9,342.6 453.5,338.2 450.9,333.8 445.9,333.8 "
   id="polygon2023" />
			<polygon
   points="375,313.4 380.1,313.4 382.6,309 380.1,304.6 375,304.6 372.4,309 "
   id="polygon2025" />
			<polygon
   points="382.6,320.7 380.1,316.3 375,316.3 372.4,320.7 375,325.1 380.1,325.1 "
   id="polygon2027" />
			<polygon
   points="453.4,297.3 456,301.7 461.1,301.7 463.6,297.3 461.1,292.9 456,292.9 "
   id="polygon2029" />
			<polygon
   points="375,301.7 380.1,301.7 382.6,297.3 380.1,292.9 375,292.9 372.4,297.3 "
   id="polygon2031" />
			<polygon
   points="382.6,332.3 380.1,328 375,328 372.4,332.3 375,336.7 380.1,336.7 "
   id="polygon2033" />
		</g>
	</g>
	<path
   class="st8"
   d="m 613.7,541.5 c -4.3,2.9 -9,4.2 -14.3,4.2 -28.4,-0.1 -56.7,0.1 -85.1,-0.1 -9.7,0 -19,-2.5 -27.4,-6.7 -11.9,-6.1 -21.9,-15.8 -28.2,-27.7 17.7,-4.1 33.5,-9.3 46.4,-15.2 0.1,0 0.2,-0.1 0.3,-0.1 1.3,-0.6 2.6,-1.2 3.8,-1.8 0,0 0,0 0,0 2.4,1.3 5.2,1.9 8.2,2 h 0.1 c 0.4,0 0.8,0 1.2,0 27.1,-0.1 54.2,-0.1 81.3,0 11.1,0.1 20.3,7.1 23.5,17.7 3.2,10.3 -0.8,21.6 -9.8,27.7 z"
   id="path2039" />
	<path
   class="st8"
   d="m 504,489.3 c 1.5,2.1 3.3,3.7 5.3,4.7 -13.7,6.8 -30.9,12.6 -50.6,17.2 -4.3,-8.1 -6.9,-17.2 -7.3,-26.7 -0.2,-5.3 -0.2,-10.5 -0.2,-15.8 0,-2.9 0,-5.8 0,-8.7 0,-4.1 -1.4,-7.5 -5.7,-7.6 -4.4,0 -5.8,3.4 -5.8,7.5 0,3.7 0,7.4 0,11.1 0,14.7 0.1,29.4 -0.1,44.1 -15.1,2.7 -31.4,4.7 -48.5,5.8 0,-0.5 0,-0.9 -0.1,-1.4 -0.3,-14.2 -0.2,-28.5 -0.3,-42.7 0,-4.2 0,-8.5 0,-12.8 0,-1.7 0,-3.4 0,-5 -0.2,-3.9 -1.9,-6.8 -6,-6.6 -3.6,0.1 -5.4,2.9 -5.4,6.5 -0.1,4.4 0,8.8 0,13.2 v 5.3 c 0,14 0,28 0,42 0,0.7 0,1.4 -0.1,2.1 -7.7,0.3 -15.6,0.5 -23.6,0.5 -8.3,0 -16.4,-0.2 -24.3,-0.6 0,-0.3 0,-0.7 -0.1,-1.1 -0.4,-14.3 -0.5,-28.7 -0.6,-43 -0.1,-4.8 -0.1,-9.6 -0.2,-14.4 0,-2.1 0,-4.2 -0.4,-6.3 -0.6,-2.7 -2.5,-4.5 -5.3,-4.5 -2.8,0 -4.8,1.8 -5.4,4.4 -0.5,2 -0.4,4.2 -0.4,6.3 0,4.6 0,9.2 0,13.8 0,14.5 0,29 -0.3,43.6 0,0.1 0,0.3 0,0.4 -17,-1.2 -33.2,-3.2 -48.3,-5.9 -0.3,-14.7 -0.2,-29.3 -0.2,-44 0,-2.4 0,-4.9 0,-7.4 0,-4.5 1.2,-10.6 -5.4,-10.8 -7.1,-0.2 -6,6.1 -6.1,10.8 -0.1,1.7 -0.1,3.4 -0.1,5 0,8.4 0.5,16.8 -1.2,25.1 -1.2,6.2 -3.2,11.9 -5.9,17.2 -19.3,-4.6 -36.2,-10.4 -49.8,-17.1 5,-2.6 7.1,-7.8 7.1,-16.5 0,-8 0,-16 0,-24.1 0,-14.1 0,-28.3 0,-42.4 34.8,-15.2 87.6,-24.9 146.8,-24.9 58.4,0 110.6,9.4 145.4,24.3 V 476 c 0.2,4.7 0.2,9.3 3.1,13.3 z"
   id="path2041" />
	<path
   class="st0"
   d="m 501.1,320.2 v 90.2 c -34.8,-14.8 -87,-24.3 -145.4,-24.3 -59.2,0 -112,9.7 -146.8,24.9 v -1.5 c 0,-14.3 0,-28.5 0,-42.8 V 321 c 0.5,0.3 0.9,0.6 1.4,0.9 5.1,3 10.3,2.9 15.5,2.7 5.4,-0.2 8.8,1.9 11.1,7.2 3.5,8.3 8.8,15.5 15.1,21.2 13,11.7 30.8,17.2 48.8,14.1 16.4,-2.9 30,-11.9 38.7,-24.8 5.8,-8.6 9.4,-18.9 10.1,-30.1 0.2,-3.2 -0.1,-6.9 4,-7.6 5,-0.8 5.6,2.8 5.8,6.8 0.7,11.5 4.3,22.1 10.2,30.8 8.1,12 20.5,20.7 35.5,24.1 19.1,4.4 38.6,-1.1 52.4,-13.6 0,0 0,0 0,0 5.9,-5.3 10.8,-12 14.1,-19.7 2.7,-6.1 6.3,-8.8 12.9,-8.5 7.3,0.3 8.1,0.1 13.9,-3 0.9,-0.4 1.7,-0.8 2.7,-1.3 z"
   id="path2043" />
	<path
   d="m 439.8,515.1 c 0,1.6 0,3.1 -0.1,4.7 -0.2,14.9 -11.2,25.4 -25.3,24.8 -12.8,-0.5 -22.3,-10 -23.1,-23.6 17,-1.3 33.3,-3.2 48.5,-5.9 z"
   id="path2045" />
	<path
   d="m 379.4,521.6 c -1,13.3 -10.5,22.7 -23.5,23 -13.4,0.2 -23.7,-9.2 -24.5,-23 8,0.4 16.1,0.6 24.3,0.6 8,-0.1 15.9,-0.3 23.7,-0.6 z"
   id="path2047" />
	<path
   d="m 318.7,520.8 c -0.5,13.5 -10.4,23.3 -23.3,23.7 -13.2,0.5 -24.3,-8.9 -24.8,-22.5 -0.1,-2.4 -0.2,-4.8 -0.2,-7.2 15.1,2.8 31.3,4.8 48.3,6 z"
   id="path2049" />
	<path
   class="st8"
   d="m 251.6,510.9 c -8.4,16.9 -23.6,28.8 -42.2,33 -4.8,1.1 -9.8,1.7 -15,1.7 -28,0 -55.9,0 -83.9,0 -15.8,0 -26.5,-10.1 -26.4,-24.9 0,-14.6 10.9,-24.7 26.7,-24.7 17,0 33.9,0 50.9,0 h 28.6 c 4.9,0 8.7,-0.7 11.6,-2.2 13.4,6.8 30.3,12.6 49.7,17.1 z"
   id="path2051" />
	<path
   d="m 501.1,366.5 v 87.1 c -14,6 -30.9,11.2 -49.8,15.1 0,-2.9 0,-5.8 0,-8.7 0,-4.1 -1.4,-7.5 -5.7,-7.6 -4.4,0 -5.8,3.4 -5.8,7.5 0,3.7 0,7.4 0,11.1 -15.2,2.7 -31.6,4.7 -48.9,5.9 0,-4.2 0,-8.5 0,-12.8 0,-1.7 0,-3.4 0,-5 -0.2,-3.9 -1.9,-6.8 -6,-6.6 -3.6,0.1 -5.4,2.9 -5.4,6.5 -0.1,4.4 0,8.8 0,13.2 v 5.3 c -7.9,0.4 -16,0.5 -24.2,0.5 -8.3,0 -16.5,-0.2 -24.5,-0.6 -0.1,-4.8 -0.1,-9.6 -0.2,-14.4 0,-2.1 0,-4.2 -0.4,-6.3 -0.6,-2.7 -2.5,-4.5 -5.3,-4.5 -2.8,0 -4.8,1.8 -5.4,4.4 -0.5,2 -0.4,4.2 -0.4,6.3 0,4.6 0,9.2 0,13.8 -17.2,-1.2 -33.6,-3.2 -48.8,-6 0,-2.4 0,-4.9 0,-7.4 0,-4.5 1.2,-10.6 -5.4,-10.8 -7.1,-0.2 -6,6.1 -6.1,10.8 -0.1,1.7 -0.1,3.4 -0.1,5 -18.9,-4 -35.7,-9.2 -49.7,-15.2 0,-14.6 0,-29.2 0,-43.8 0,-14.3 0,-28.5 0,-42.8 12.3,-5.3 26.8,-10 43.1,-13.8 13,11.7 30.8,17.2 48.8,14.1 16.4,-2.9 30,-11.9 38.7,-24.8 5.2,-0.2 10.4,-0.2 15.7,-0.2 4.9,0 9.7,0.1 14.4,0.2 8.1,12 20.5,20.7 35.5,24.1 19.1,4.4 38.6,-1.1 52.4,-13.6 0,0 0,0 0,0 16.4,4 31.1,8.6 43.5,14 z"
   id="path2053" />
	<path
   class="st8"
   d="m 501.1,322.6 v 86.7 c -34.8,15.1 -87.4,24.7 -146.3,24.7 -58.6,0 -111.1,-9.5 -145.9,-24.5 0,-14.6 0,-29.2 0,-43.9 v -43.2 c 0.5,-0.2 0.9,-0.4 1.4,-0.6 5.1,3 10.3,2.9 15.5,2.7 5.4,-0.2 8.8,1.9 11.1,7.2 10.9,25.5 37.2,39.9 63.9,35.2 27.3,-4.8 47,-26.8 48.8,-54.9 0.2,-3.2 -0.1,-6.9 4,-7.6 5,-0.8 5.6,2.8 5.8,6.8 1.6,27.3 19.7,49 45.7,55 27.3,6.2 55.2,-7.5 66.5,-33.3 2.7,-6.1 6.3,-8.8 12.9,-8.5 7.3,0.3 8.1,0.1 13.9,-3 1,0.5 1.8,0.9 2.7,1.2 z"
   id="path2055" />
	<path
   d="m 501.1,320.2 v 44.9 C 466.3,380.3 413.5,390 354.3,390 295.9,390 243.7,380.6 208.9,365.7 V 321 c 5.6,4 11.3,3.8 16.9,3.6 5.4,-0.2 8.8,1.9 11.1,7.2 10.9,25.5 37.2,39.9 63.9,35.2 27.3,-4.8 47,-26.8 48.8,-54.9 0.2,-3.2 -0.1,-6.9 4,-7.6 5,-0.8 5.6,2.8 5.8,6.8 1.6,27.3 19.7,49 45.7,55 27.3,6.2 55.2,-7.5 66.5,-33.3 2.7,-6.1 6.3,-8.8 12.9,-8.5 8.3,0.3 8.3,0.1 16.6,-4.3 z"
   id="path2057" />
	<path
   d="m 251.6,510.9 c -8.4,16.9 -23.6,28.8 -42.2,33 -29,-14.9 -42,-34.5 -47.7,-47.9 h 28.6 c 4.9,0 8.7,-0.7 11.6,-2.2 13.4,6.8 30.3,12.6 49.7,17.1 z"
   id="path2059" />
	<path
   d="m 549.6,496.2 c -5.7,13.4 -18.7,33.1 -47.7,47.9 -5.1,-1.2 -10.1,-2.9 -14.9,-5.2 -11.9,-6.1 -21.9,-15.8 -28.2,-27.7 17.7,-4.1 33.5,-9.3 46.4,-15.2 0.1,0 0.2,-0.1 0.3,-0.1 1.3,-0.6 2.6,-1.2 3.9,-1.8 0,0 0.1,0 0.1,0 2.1,1.1 4.8,1.8 8.1,2 h 0.1 c 1.1,0.1 2.2,0.1 3.4,0.1 z"
   id="path2061" />
</g>
</svg>
