<?xml version="1.0" encoding="utf-8"?>
<!-- Generator: Adobe Illustrator 24.1.1, SVG Export Plug-In . SVG Version: 6.00 Build 0)  -->
<svg version="1.1" id="Capa_1" xmlns="http://www.w3.org/2000/svg" xmlns:xlink="http://www.w3.org/1999/xlink" x="0px" y="0px"
	 viewBox="0 0 708.7 708.7" style="enable-background:new 0 0 708.7 708.7;" xml:space="preserve">
<style type="text/css">
	.st0{fill:#501287;}
	.st1{fill:#501288;}
	.st2{fill:#2B0D51;}
	.st3{fill:#7A7A7A;}
	.st4{fill:#6D6D6D;}
	.st5{fill:#4F4F4F;}
	.st6{fill:#999999;}
	.st7{display:none;fill:#FFF800;}
	.st8{fill:#FFF800;}
	.st9{clip-path:url(#SVGID_2_);}
	.st10{clip-path:url(#SVGID_4_);}
	.st11{fill:#FEFEFE;}
	.st12{fill:#FEFEFE;stroke:#501287;stroke-width:9.9698;stroke-miterlimit:10;}
	.st13{fill:#FEFEFE;stroke:#501287;stroke-width:9.9698;stroke-linecap:round;stroke-miterlimit:10;}
</style>
<ellipse class="st7" cx="640.9" cy="664.3" rx="146.5" ry="52.5"/>
<g>
	<path class="st0" d="M215.9,381.7c5.3,3.8,10.7,3.7,16.1,3.5c5.1-0.2,8.4,1.8,10.6,6.9c10.4,24.3,35.4,38,60.9,33.5
		c26-4.5,44.7-25.5,46.5-52.3c0.2-3,0-6.6,3.8-7.2c4.7-0.8,5.3,2.7,5.6,6.5c1.5,26,18.8,46.7,43.5,52.3c26,5.9,52.6-7.1,63.4-31.7
		c2.5-5.8,6-8.4,12.2-8.1c7.9,0.3,7.9,0.1,15.7-4.2c0,2.4,0,4.6,0,6.7c0,47.2,0,94.5,0,141.7c0,4.4,0,8.8,2.7,12.7
		c3.5,4.8,8.3,6.5,14.1,6.4c25.8-0.1,51.6-0.1,77.5,0c10.6,0,19.3,6.8,22.3,16.8c3,9.9-0.8,20.6-9.4,26.4c-4.1,2.8-8.6,4-13.6,4
		c-27-0.1-54,0.1-81.1-0.1c-31.5-0.2-58.6-26.6-59.8-58.1c-0.3-7.8-0.2-15.6-0.2-23.4c0-3.9-1.3-7.2-5.4-7.2c-4.2,0-5.5,3.3-5.5,7.1
		c0,19,0.2,38-0.1,57c-0.2,14.2-10.7,24.1-24.1,23.6c-12.6-0.5-21.8-10.2-22.1-23.8c-0.3-17.6-0.2-35.2-0.3-52.8c0-1.6,0-3.2,0-4.8
		c-0.1-3.7-1.8-6.4-5.7-6.3c-3.5,0.1-5.1,2.8-5.2,6.2c0,4.2,0,8.4,0,12.6c0,15,0,30,0,45c-0.1,13.7-9.5,23.6-22.5,23.9
		c-13.1,0.2-23-9.2-23.4-22.9c-0.5-18.2-0.5-36.4-0.7-54.6c0-2,0-4-0.4-6c-0.6-2.6-2.4-4.3-5.1-4.3c-2.7,0-4.6,1.7-5.2,4.2
		c-0.5,1.9-0.4,4-0.4,6c-0.1,18.2,0,36.4-0.3,54.6c-0.2,13.1-9.7,22.6-22.2,23c-12.6,0.4-23.1-8.5-23.6-21.4
		c-0.7-18.6-0.3-37.2-0.5-55.8c0-4.3,1.2-10.1-5.1-10.3c-6.7-0.2-5.7,5.8-5.8,10.3c-0.3,9.6,0.7,19.2-1.2,28.7
		c-5.8,29.5-30,49.4-60.1,49.4c-26.6,0-53.2,0-79.9,0c-15.1,0-25.2-9.6-25.2-23.7c0-13.9,10.3-23.5,25.4-23.5c25.2,0,50.4,0,75.7,0
		c12.9,0,17.8-4.8,17.8-17.7c0-47.2,0-94.5,0-141.7C215.9,386.8,215.9,384.6,215.9,381.7z"/>
	<path class="st11" d="M293,362.2c-2.8,0.1-5,1.7-6.3,4.4c-1.5,3-0.8,5.8,1.2,8.3c3.4,4.3,0.5,12.6-4.7,13.8c-1.5,0.4-3,1.2-4.2,2.1
		c-2.4,2-3.8,0.6-5.5-1c-1.8-1.7-2.5-3-1-5.6c3.4-5.7,2.4-8-4.3-9.9c-2.7-0.7-2.8-2.2-2.8-4.3c0-2.3,0.1-4,3-4.9
		c6.7-1.9,7.6-4.1,4.2-9.9c-1.5-2.6-0.7-3.9,1-5.6c1.7-1.7,3.1-2.5,5.6-0.9c5.5,3.4,8.3,2.3,9.7-3.7c0.7-3,2.2-3.7,5-3.7
		c2.6,0,3.8,0.8,4.4,3.5c1.5,6,4.4,7.2,9.8,3.8c2.5-1.6,3.8-1,5.5,0.9c1.5,1.7,2.9,2.8,1.3,5.5c-3.6,5.9-2.7,8.3,3.8,10.1
		c2.8,0.7,3.4,2.1,3.3,4.6c-0.1,2.4-0.2,4-3.2,4.7c-6.3,1.5-7.6,4.4-4.3,9.5c1.8,2.7,1,4.1-0.9,6c-1.8,1.8-3.4,2.6-5.6,0.7
		c-3-2.5-8.4-1.5-9.3-7.4c-0.5-3.5-2.9-6.2,1.1-9.3c2.3-1.8,2.1-5.1,0.5-7.8C298.6,363.5,296.3,362.2,293,362.2z"/>
	<path class="st11" d="M422.7,370.1c-0.3-3.9-2.1-6.4-5.4-7.5c-3.2-1.1-6-0.2-8.1,2.4c-2.3,2.7-2.5,5.8-0.7,8.9
		c4.2,6.9,2.3,12.6-5.4,15.2c-2.4,0.8-4.1,5.1-7.6,1.6c-2.2-2.2-3.6-3.7-1.3-7c3.1-4.4,1.7-7.9-3.7-9c-3-0.6-3.9-1.8-3.9-4.7
		c0-2.9,0.9-4.1,3.8-4.8c5.6-1.4,6.8-4.4,3.6-9.4c-1.8-2.7-1-4.1,1-6c1.9-1.8,3.2-2.2,5.6-0.7c5.3,3.4,8.1,2.2,9.6-4
		c0.7-2.8,1.9-3.4,4.5-3.5c2.8,0,4.2,0.6,4.9,3.7c1.3,5.7,4.5,7,9.3,3.9c2.5-1.6,4-1.5,6.1,0.6c2.1,2.1,2.2,3.6,0.6,6.1
		c-3.1,5-1.9,7.9,3.8,9.3c2.9,0.7,3.8,1.9,3.8,4.9c0,3-1.1,4-4,4.6c-5.5,1.1-6.8,4.3-3.8,9c1.7,2.7,1.7,4.3-0.6,6.6
		c-2.3,2.3-4.1,2.3-6,0.2c-2.3-2.4-7.1-0.1-8.1-5.2c-0.9-4.3-4.1-8.2,0.9-12C422.4,372.6,422.4,370.9,422.7,370.1z"/>
	<g>
		<path class="st12" d="M196.1,233.1L196.1,233.1c-6.9-9.6-4.7-22.9,4.9-29.8L316,120.5l24.9,34.7l-115.1,82.7
			C216.3,244.8,203,242.6,196.1,233.1z"/>
		<line class="st13" x1="310.6" y1="113" x2="346.4" y2="162.7"/>
		<path class="st0" d="M261.7,162l55,7l-95.1,68.4c-8.5,6.1-20.3,4.2-26.3-4.3l0,0c-6.1-8.5-4.2-20.3,4.3-26.3L261.7,162z"/>
	</g>
	<path class="st0" d="M370.3,191.4l-12.6-20.6l-11.5,18.8c-1.7,2.4-2.8,5.2-2.8,8.4c0,7.9,6.4,14.2,14.2,14.2
		c7.9,0,14.2-6.4,14.2-14.2C371.9,195.6,371.3,193.3,370.3,191.4z"/>
	<path class="st0" d="M423.2,250.1c-14.3-7.8-28.6-13.2-42.8-16.2c-1.8-0.4-3.3,1.2-3,3c0.2,1,0.3,2,0.3,3c0,9.8-8.8,17.8-19.6,17.8
		s-19.6-8-19.6-17.8c0-1.4,0.2-2.8,0.5-4.1c0.5-1.8-1-3.5-2.8-3.2c-20.9,3.1-41.5,11.4-61.6,25c-34,23-62.3,74.5-57.5,102.3
		c3.8-3.2,8.2-3,12.6-2.9c5.9,0,10.1-2.5,12.6-8.1c10.2-22.4,27.7-34.2,52.3-34.4c40-0.3,80-0.2,119.9,0c22.8,0.1,42.9,14,52.3,34.7
		c2.2,4.9,6.1,7.4,10.9,7.6c5.5,0.2,10.7,0.5,16.2,4.9C488.7,311.8,466.1,273.7,423.2,250.1z"/>
	<g>
		<g id="g3493_1_">
			<g id="g3503_1_" transform="translate(84.4331,106.7368)">
				<path id="path3505_1_" class="st0" d="M237.5,263.1l-0.2,4.2l-3.7,0.7c-3.2,0.6-3.8,1.1-4.7,3.5c-0.9,2.5-0.8,3,1,5.8l2,3.1
					l-2.7,2.9c-1.5,1.6-2.9,2.9-3.2,2.9s-1.8-0.9-3.2-2c-1.8-1.4-3.3-1.9-4.6-1.6c-1.7,0.4-2.1-0.1-4.5-5.7l-2.6-6.2l1.7-1.2
					c2.2-1.5,3.8-5.4,3.3-7.8c-1.1-5.6-9.1-7.6-12.8-3.2c-2.7,3.1-2.2,8,1.1,10.6l2.2,1.7l-2.7,6.1c-2.4,5.5-2.9,6.1-4.6,5.7
					c-1.3-0.3-2.7,0.2-4.5,1.6c-1.5,1.1-2.8,2-3,2c-0.2,0-1.6-1.3-3.1-2.8l-2.7-2.8l1.9-3.5c1.7-3.1,1.8-3.7,0.8-5.8
					c-0.9-1.8-1.9-2.5-4.5-3.1l-3.4-0.7v-4.3v-4.3l3.2-0.5c2.5-0.4,3.5-1.1,4.4-2.8c1.6-3,1.5-3.5-0.8-7l-2-2.9l2.6-2.6
					c3-3.1,3.5-3.2,7.1-0.8c2.5,1.7,3,1.8,5.4,0.8c1.8-0.7,2.8-1.8,3.1-3.3c1.1-5.2,1-5,5.5-5h4.3l0.5,3.6c0.5,3.1,0.9,3.8,3.1,4.7
					c2.3,1,2.8,0.9,5.4-0.8c1.5-1,3.2-1.9,3.7-1.9c0.5,0,2,1.2,3.5,2.7l2.6,2.7l-2.2,3.3c-2.1,3.2-2.2,3.4-0.9,6
					c1.1,2.3,1.8,2.8,5,3.2l3.7,0.6L237.5,263.1z M251,260c-2.9-25.4-27.1-43-50.6-36.9c-19.5,5-32.5,21.3-32.5,40.7
					c0,18.7,13.1,35.1,32.1,40.4c5.7,1.6,15.6,1.1,22.4-1.1C240.1,297.5,253,278.1,251,260"/>
			</g>
			<g id="g3507_1_" transform="translate(114.4883,106.7017)">
				<path id="path3509_1_" class="st0" d="M328.9,263.2c0,4.5-0.7,5.2-5.3,5.2c-1.1,0-2.1,0.9-3,2.7c-1.3,2.6-1.2,2.8,0.7,5.4
					c1.1,1.5,2,3.1,2,3.5s-1.2,2.1-2.8,3.6l-2.8,2.7l-3-2.1c-2-1.4-3.6-2-4.8-1.6c-1.3,0.3-1.9,0.1-2.3-1c-0.3-0.8-1.4-3.6-2.6-6.2
					l-2-4.7l1.7-1.3c6-4.7,3.6-13.3-3.7-13.3c-7.1,0-10.3,7.8-5.1,12.5l2.5,2.3l-2.6,6.1c-2.4,5.5-2.8,6-4.5,5.6
					c-1.3-0.3-2.7,0.2-4.6,1.6h0c-1.5,1.1-3,2-3.4,2c-0.4,0-1.9-1.3-3.4-2.8l-2.7-2.8l2.2-3.4c2.1-3.2,2.2-3.5,1.1-5.8
					c-0.9-1.9-2-2.6-4.7-3.3l-3.6-0.9L272,263l-0.2-4.2l3.7-0.6c3.2-0.5,3.9-0.9,5-3.2c1.2-2.6,1.2-2.8-0.9-6l-2.2-3.4l2.9-2.9
					c2.7-2.7,3-2.8,4.7-1.8c1,0.6,2.5,1.6,3.4,2.1c1.3,0.8,2.1,0.8,4.2-0.1c2.2-0.9,2.6-1.6,3.1-4.7l0.5-3.6h4.2h4.2l0.9,3.6
					c0.7,2.9,1.4,3.8,3.5,4.7c2.4,1,2.8,0.9,5.4-0.8c3.6-2.4,4.1-2.4,6.7,0.4c2.6,2.7,2.7,3.6,0.5,6.7c-1.2,1.7-1.5,3-1.2,4.7
					c0.6,2.9,1.6,3.8,5.4,4.5l3,0.6V263.2z M341.7,255.4c-4.8-22.8-28.3-37.9-50.1-32.3c-16.3,4.2-27.7,15.9-31.3,32.2
					c-3.9,17.6,5.6,37.3,22,45.6c1.5,0.7,5.3,2,8.4,2.9c7.1,1.9,13.2,2,19.4,0.4C332.3,298.4,346.2,277,341.7,255.4"/>
			</g>
		</g>
	</g>
</g>
</svg>
