<?xml version="1.0" encoding="utf-8"?>
<!-- Generator: Adobe Illustrator 24.1.1, SVG Export Plug-In . SVG Version: 6.00 Build 0)  -->
<svg version="1.1" id="Capa_1" xmlns="http://www.w3.org/2000/svg" xmlns:xlink="http://www.w3.org/1999/xlink" x="0px" y="0px"
	 viewBox="0 0 708.7 708.7" style="enable-background:new 0 0 708.7 708.7;" xml:space="preserve">
<style type="text/css">
	.st0{fill:#501287;}
	.st1{fill:#501288;}
	.st2{fill:#2B0D51;}
	.st3{fill:#7A7A7A;}
	.st4{fill:#6D6D6D;}
	.st5{fill:#4F4F4F;}
	.st6{fill:#999999;}
	.st7{display:none;fill:#FFF800;}
	.st8{fill:#FFF800;}
	.st9{clip-path:url(#SVGID_2_);}
	.st10{clip-path:url(#SVGID_4_);}
	.st11{fill:#FEFEFE;}
	.st12{fill:#FEFEFE;stroke:#501287;stroke-width:9.9698;stroke-miterlimit:10;}
	.st13{fill:#FEFEFE;stroke:#501287;stroke-width:9.9698;stroke-linecap:round;stroke-miterlimit:10;}
</style>
<g>
	<g>
		<path class="st0" d="M152.9,308.6c4.7,0,8.1-2,10.1-6.4c8.1-17.9,22.1-27.3,41.8-27.4c31.8-0.2,63.5-0.2,95.3,0
			c19.9,0.1,34,9.5,42.1,27.6c4.6,8.9,21.2,8,24.7-0.2c8.1-17.9,22.1-27.3,41.8-27.4c31.8-0.2,63.5-0.2,95.3,0
			c19.9,0.1,34,9.5,42.1,27.6c1.8,3.9,4.8,6,8.8,6.1c4.4,0.2,8.5,0.4,13,3.9c-4.4-39.8-22.4-70.2-56.7-89
			c-40.2-22-80.5-19.8-118.5,6c-15.5,10.5-29.5,28.4-38,45.9c-9.2-22-24.8-39.5-47.5-51.9c-40.2-22-80.5-19.8-118.5,6
			c-27.2,18.4-49.7,59.4-45.9,81.6C145.9,308.5,149.4,308.6,152.9,308.6z"/>
		<path class="st0" d="M197.4,287c-15.6,4-26,17-26,32.5c0,14.9,10.5,28.1,25.7,32.3c4.6,1.3,12.4,0.9,17.9-0.9
			c14.1-4.5,24.5-20,22.8-34.4C235.5,296.2,216.2,282.1,197.4,287z M227.1,318.9l-0.2,3.3l-3,0.6c-2.6,0.5-3.1,0.9-3.7,2.8
			c-0.7,2-0.6,2.4,0.8,4.6l1.6,2.4l-2.1,2.3c-1.2,1.3-2.3,2.3-2.6,2.3c-0.2,0-1.4-0.7-2.6-1.6c-1.5-1.1-2.6-1.5-3.6-1.3
			c-1.4,0.3-1.7-0.1-3.6-4.6L206,325l1.4-1c1.7-1.2,3-4.3,2.7-6.3c-0.8-4.5-7.2-6.1-10.2-2.6c-2.1,2.5-1.8,6.4,0.8,8.5l1.7,1.4
			l-2.2,4.9c-1.9,4.4-2.3,4.9-3.6,4.5c-1-0.3-2.2,0.1-3.6,1.2c-1.2,0.9-2.3,1.6-2.4,1.6c-0.2,0-1.3-1-2.5-2.3l-2.2-2.3l1.5-2.8
			c1.4-2.5,1.4-2.9,0.6-4.6c-0.7-1.4-1.5-2-3.6-2.4l-2.7-0.6v-6.9l2.6-0.4c2-0.3,2.8-0.8,3.5-2.2c1.2-2.4,1.2-2.8-0.7-5.6l-1.6-2.3
			l2-2.1c2.4-2.5,2.8-2.5,5.7-0.6c2,1.4,2.4,1.4,4.3,0.6c1.4-0.6,2.2-1.4,2.5-2.6c0.9-4.1,0.8-4,4.4-4h3.4l0.4,2.9
			c0.4,2.5,0.7,3,2.5,3.7c1.9,0.8,2.3,0.7,4.3-0.7c1.2-0.8,2.5-1.5,2.9-1.5c0.4,0,1.6,1,2.8,2.2l2.1,2.2l-1.8,2.7
			c-1.7,2.6-1.7,2.7-0.7,4.8c0.9,1.8,1.4,2.2,4,2.6l3,0.4L227.1,318.9z"/>
		<path class="st0" d="M294.2,286.9c-13,3.3-22.1,12.7-25,25.8c-3.1,14,4.5,29.8,17.6,36.4c1.2,0.6,4.2,1.6,6.7,2.3
			c5.7,1.5,10.5,1.6,15.5,0.3c17.8-4.5,28.9-21.7,25.2-38.9C330.5,294.5,311.7,282.4,294.2,286.9z M324.1,318.9
			c0,3.6-0.6,4.1-4.2,4.2c-0.9,0-1.7,0.8-2.4,2.2c-1,2.1-1,2.3,0.5,4.3c0.9,1.2,1.6,2.4,1.6,2.8c0,0.4-1,1.7-2.2,2.9l-2.2,2.2
			l-2.4-1.7c-1.6-1.1-2.9-1.6-3.9-1.3c-1,0.3-1.5,0-1.8-0.8c-0.2-0.7-1.1-2.9-2.1-5l-1.6-3.8l1.3-1.1c4.8-3.8,2.9-10.7-2.9-10.7
			c-5.7,0-8.2,6.2-4.1,10l2,1.8l-2.1,4.8c-1.9,4.4-2.2,4.8-3.6,4.5c-1-0.3-2.2,0.1-3.6,1.3h0c-1.2,0.9-2.4,1.6-2.7,1.6
			c-0.3,0-1.5-1-2.7-2.2l-2.2-2.2l1.8-2.7c1.7-2.5,1.7-2.8,0.9-4.6c-0.7-1.5-1.6-2.1-3.8-2.6l-2.8-0.7l-0.2-3.3l-0.2-3.3l3-0.4
			c2.5-0.4,3.1-0.8,4-2.6c1-2.1,1-2.2-0.8-4.8l-1.8-2.7l2.3-2.3c2.1-2.1,2.4-2.2,3.8-1.4c0.8,0.5,2,1.2,2.7,1.7
			c1,0.6,1.7,0.6,3.3-0.1c1.7-0.7,2.1-1.3,2.5-3.8l0.4-2.9h6.8l0.7,2.9c0.6,2.3,1.1,3,2.8,3.7c1.9,0.8,2.3,0.7,4.3-0.6
			c2.8-1.9,3.3-1.9,5.3,0.3c2.1,2.2,2.1,2.9,0.4,5.3c-1,1.3-1.2,2.4-0.9,3.7c0.5,2.4,1.3,3,4.3,3.6l2.4,0.4V318.9z"/>
		<path class="st0" d="M401.3,287c-15.6,4-26,17-26,32.5c0,14.9,10.5,28.1,25.7,32.3c4.6,1.3,12.4,0.9,17.9-0.9
			c14.1-4.5,24.5-20,22.8-34.4C439.5,296.2,420.1,282.1,401.3,287z M431,318.9l-0.2,3.3l-3,0.6c-2.6,0.5-3.1,0.9-3.7,2.8
			c-0.7,2-0.6,2.4,0.8,4.6l1.6,2.4l-2.1,2.3c-1.2,1.3-2.3,2.3-2.6,2.3c-0.2,0-1.4-0.7-2.6-1.6c-1.5-1.1-2.6-1.5-3.6-1.3
			c-1.4,0.3-1.7-0.1-3.6-4.6L410,325l1.4-1c1.7-1.2,3-4.3,2.7-6.3c-0.8-4.5-7.2-6.1-10.2-2.6c-2.1,2.5-1.8,6.4,0.8,8.5l1.7,1.4
			l-2.2,4.9c-1.9,4.4-2.3,4.9-3.6,4.5c-1-0.3-2.2,0.1-3.6,1.2c-1.2,0.9-2.3,1.6-2.4,1.6c-0.2,0-1.3-1-2.5-2.3l-2.2-2.3l1.5-2.8
			c1.4-2.5,1.4-2.9,0.6-4.6c-0.7-1.4-1.5-2-3.6-2.4l-2.7-0.6v-6.9l2.6-0.4c2-0.3,2.8-0.8,3.5-2.2c1.2-2.4,1.2-2.8-0.7-5.6l-1.6-2.3
			l2-2.1c2.4-2.5,2.8-2.5,5.7-0.6c2,1.4,2.4,1.4,4.3,0.6c1.4-0.6,2.2-1.4,2.5-2.6c0.9-4.1,0.8-4,4.4-4h3.4l0.4,2.9
			c0.4,2.5,0.7,3,2.5,3.7c1.9,0.8,2.3,0.7,4.3-0.7c1.2-0.8,2.5-1.5,2.9-1.5c0.4,0,1.6,1,2.8,2.2l2.1,2.2l-1.8,2.7
			c-1.7,2.6-1.7,2.7-0.7,4.8c0.9,1.8,1.4,2.2,4,2.6l3,0.4L431,318.9z"/>
		<path class="st0" d="M498.2,286.9c-13,3.3-22.1,12.7-25,25.8c-3.1,14,4.5,29.8,17.6,36.4c1.2,0.6,4.2,1.6,6.7,2.3
			c5.7,1.5,10.5,1.6,15.5,0.3c17.8-4.5,28.9-21.7,25.2-38.9C534.4,294.5,515.7,282.4,498.2,286.9z M528,318.9c0,3.6-0.6,4.1-4.2,4.2
			c-0.9,0-1.7,0.8-2.4,2.2c-1,2.1-1,2.3,0.5,4.3c0.9,1.2,1.6,2.4,1.6,2.8c0,0.4-1,1.7-2.2,2.9l-2.2,2.2l-2.4-1.7
			c-1.6-1.1-2.9-1.6-3.9-1.3c-1,0.3-1.5,0-1.8-0.8c-0.2-0.7-1.1-2.9-2.1-5l-1.6-3.8l1.3-1.1c4.8-3.8,2.9-10.7-2.9-10.7
			c-5.7,0-8.2,6.2-4.1,10l2,1.8l-2.1,4.8c-1.9,4.4-2.2,4.8-3.6,4.5c-1-0.3-2.2,0.1-3.6,1.3h0c-1.2,0.9-2.4,1.6-2.7,1.6
			c-0.3,0-1.5-1-2.7-2.2l-2.2-2.2l1.8-2.7c1.7-2.5,1.7-2.8,0.9-4.6c-0.7-1.5-1.6-2.1-3.8-2.6l-2.8-0.7l-0.2-3.3l-0.2-3.3l3-0.4
			c2.5-0.4,3.1-0.8,4-2.6c1-2.1,1-2.2-0.8-4.8l-1.8-2.7l2.3-2.3c2.1-2.1,2.4-2.2,3.8-1.4c0.8,0.5,2,1.2,2.7,1.7
			c1,0.6,1.7,0.6,3.3-0.1c1.7-0.7,2.1-1.3,2.5-3.8l0.4-2.9h6.8l0.7,2.9c0.6,2.3,1.1,3,2.8,3.7c1.9,0.8,2.3,0.7,4.3-0.6
			c2.8-1.9,3.3-1.9,5.3,0.3c2.1,2.2,2.1,2.9,0.4,5.3c-1,1.3-1.2,2.4-0.9,3.7c0.5,2.4,1.3,3,4.3,3.6l2.4,0.4V318.9z"/>
	</g>
	<path class="st0" d="M660.9,474.9c-2.4-8-9.4-13.4-17.8-13.4c-20.6-0.1-41.2-0.1-61.8,0c-4.6,0-8.5-1.3-11.2-5.1
		c-2.2-3.1-2.2-6.6-2.2-10.1c0-37.7,0-75.4,0-113.1v-5.4c-6.3,3.4-6.3,3.6-12.6,3.3c-5-0.2-7.7,1.9-9.8,6.5
		c-8.6,19.6-29.8,30-50.6,25.3c-19.8-4.5-33.5-21-34.7-41.8c-0.2-3-0.7-5.8-4.4-5.2c-3,0.5-2.9,3.3-3,5.8
		c-1.4,21.3-16.3,38.1-37.1,41.7c-20.3,3.5-40.3-7.4-48.6-26.8c-0.8-1.9-1-2.2-3.2-4.2c-6.4-4.8-14.3-3.9-18.1-0.2
		c-1.5,1-3.1,2.8-4.2,5.3c-8.6,19.6-29.8,30-50.6,25.3c-19.8-4.5-33.5-21-34.7-41.8c-0.2-3-0.7-5.8-4.4-5.2c-3,0.5-2.9,3.3-3,5.8
		c-1.4,21.3-16.3,38.1-37.1,41.7c-20.3,3.5-40.3-7.4-48.6-26.8c-1.7-4-4.3-5.6-8.4-5.5c-4.3,0.2-8.6,0.2-12.9-2.8v5.8
		c0,37.7,0,75.4,0,113.1c0,10.4-3.9,14.2-14.2,14.2c-20.1,0-40.3,0-60.4,0c-12.1,0-20.3,7.6-20.3,18.8c0,11.3,8.1,18.9,20.1,18.9
		c21.2,0,42.5,0,63.7,0c24,0,43.3-16,47.9-39.5c1.5-7.6,0.7-15.3,0.9-22.9c0.1-3.6-0.7-8.4,4.6-8.2c5,0.1,4.1,4.8,4.1,8.2
		c0.1,14.9-0.2,29.7,0.4,44.5c0.4,10.3,8.8,17.4,18.8,17.1c9.9-0.3,17.5-7.9,17.7-18.4c0.3-14.5,0.2-29.1,0.2-43.6
		c0-1.6,0-3.2,0.3-4.8c0.5-2,2-3.4,4.1-3.4c2.1,0,3.6,1.4,4,3.5c0.3,1.5,0.3,3.2,0.3,4.8c0.2,14.5,0.2,29.1,0.6,43.6
		c0.3,10.9,8.2,18.5,18.6,18.3c2.6,0,4.9-0.6,7.1-1.5c6.5-2.8,10.8-9.3,10.8-17.6c0-5.9,0-11.9,0-17.8c0-6,0-12.1,0-18.1
		c0-3.4,0-6.7,0-10.1c0-2.8,1.4-4.9,4.1-5c3.1-0.1,4.4,2.1,4.5,5c0,1.3,0,2.6,0,3.8c0,8.1,0,16.2,0,24.3c0,6,0.1,11.9,0.2,17.9
		c0.2,10.9,7.5,18.6,17.6,19c10.7,0.4,19-7.5,19.2-18.8c0.1-6,0.1-12,0.1-18c0-9.2,0-18.3,0-27.5c0-3.1,1.1-5.7,4.4-5.7
		c3.3,0,4.3,2.7,4.3,5.7c0,6.2-0.1,29.4,0.1,35.6c0.1,3,0.5,5.9,1.2,8.7c0.1,0.4,0.2,0.7,0.3,1.1c7.3,28.2,47.7,27.8,54.5-0.6
		c0-0.2,0.1-0.3,0.1-0.5c0.1-0.6,0.3-1.2,0.4-1.8c1.5-7.6,0.7-32.2,0.9-39.9c0.1-3.6-0.7-8.4,4.6-8.2c5,0.1,4.1,4.8,4.1,8.2
		c0.1,8.2,0,16.5,0,24.7c0,6.6,0.1,13.2,0.3,19.8c0.4,10.3,8.8,17.4,18.8,17.1c9.9-0.3,17.5-7.9,17.7-18.4
		c0.1-6.2,0.2-12.3,0.2-18.5c0-8.4,0-16.7,0.1-25.1c0-1.6,0-3.2,0.3-4.8c0.5-2,2-3.4,4.1-3.4c2.1,0,3.6,1.4,4,3.5
		c0.3,1.5,0.3,3.2,0.3,4.8c0.1,8.3,0.2,16.7,0.3,25c0.1,6.2,0.2,12.4,0.3,18.5c0.2,7.6,4.1,13.6,10,16.4c2.6,1.3,5.5,1.9,8.7,1.9
		c10.4-0.2,17.9-8.1,17.9-19.1c0-12,0-24,0-35.9c0-3.4,0-6.7,0-10.1c0-2.8,1.4-4.9,4.1-5c3.1-0.1,4.4,2.1,4.5,5c0,1.3,0,2.6,0,3.8
		c0.1,14.1,0,28.1,0.2,42.2c0.2,10.9,7.5,18.6,17.6,19c10.7,0.4,19-7.5,19.2-18.8c0.2-15.2,0.1-30.3,0.1-45.5c0-3.1,1.1-5.7,4.4-5.7
		c3.3,0,4.3,2.7,4.3,5.7c0,6.2-0.1,12.5,0.1,18.7c0.9,25.2,22.6,46.3,47.7,46.4c21.6,0.1,43.1,0,64.7,0.1c4,0,7.6-0.9,10.8-3.2
		C660.2,491.3,663.3,482.8,660.9,474.9z M340.6,355.2H368c1.7,0,3.1,1.4,3.1,3.1s-1.4,3.1-3.1,3.1h-27.4c-1.7,0-3.1-1.4-3.1-3.1
		S338.9,355.2,340.6,355.2z M368,419.4h-27.4c-1.7,0-3.1-1.4-3.1-3.1s1.4-3.1,3.1-3.1H368c1.7,0,3.1,1.4,3.1,3.1
		S369.7,419.4,368,419.4z M390.6,398c0,3.7-3,6.6-6.6,6.6h-59.2c-3.7,0-6.6-3-6.6-6.6l0,0c0-3.7,3-6.6,6.6-6.6h59.2
		C387.6,391.4,390.6,394.4,390.6,398L390.6,398z M390.6,377.4c0,3.7-3,6.6-6.6,6.6h-59.2c-3.7,0-6.6-3-6.6-6.6l0,0
		c0-3.7,3-6.6,6.6-6.6h59.2C387.6,370.8,390.6,373.8,390.6,377.4L390.6,377.4z"/>
</g>
</svg>
