<?xml version="1.0" encoding="UTF-8" standalone="no"?>
<!-- Generator: Adobe Illustrator 24.1.1, SVG Export Plug-In . SVG Version: 6.00 Build 0)  -->

<svg
   version="1.1"
   id="Capa_1"
   x="0px"
   y="0px"
   viewBox="0 0 515.11523 487.58489"
   xml:space="preserve"
   sodipodi:docname="logo-phmeter.svg"
   width="515.11523"
   height="487.5849"
   inkscape:version="1.1 (c4e8f9e, 2021-05-24)"
   xmlns:inkscape="http://www.inkscape.org/namespaces/inkscape"
   xmlns:sodipodi="http://sodipodi.sourceforge.net/DTD/sodipodi-0.dtd"
   xmlns="http://www.w3.org/2000/svg"
   xmlns:svg="http://www.w3.org/2000/svg"><defs
   id="defs1292" /><sodipodi:namedview
   id="namedview1290"
   pagecolor="#ffffff"
   bordercolor="#666666"
   borderopacity="1.0"
   inkscape:pageshadow="2"
   inkscape:pageopacity="0.0"
   inkscape:pagecheckerboard="0"
   showgrid="false"
   fit-margin-top="0"
   fit-margin-left="0"
   fit-margin-right="0"
   fit-margin-bottom="0"
   inkscape:zoom="1.1895019"
   inkscape:cx="257.67088"
   inkscape:cy="246.74193"
   inkscape:window-width="2225"
   inkscape:window-height="1027"
   inkscape:window-x="0"
   inkscape:window-y="25"
   inkscape:window-maximized="0"
   inkscape:current-layer="Capa_1" />
<style
   type="text/css"
   id="style1258">
	.st0{fill:#501287;}
	.st1{fill:#501288;}
	.st2{fill:#2B0D51;}
	.st3{fill:#7A7A7A;}
	.st4{fill:#6D6D6D;}
	.st5{fill:#4F4F4F;}
	.st6{fill:#999999;}
	.st7{display:none;fill:#FFF800;}
	.st8{fill:#FFF800;}
	.st9{clip-path:url(#SVGID_2_);}
	.st10{clip-path:url(#SVGID_4_);}
	.st11{fill:#FEFEFE;}
	.st12{fill:#FEFEFE;stroke:#501287;stroke-width:9.9698;stroke-miterlimit:10;}
	.st13{fill:#FEFEFE;stroke:#501287;stroke-width:9.9698;stroke-linecap:round;stroke-miterlimit:10;}
</style>
<ellipse
   class="st7"
   cx="544.20001"
   cy="556.28491"
   rx="146.5"
   ry="52.5"
   id="ellipse1260" />
<g
   id="g1287"
   transform="translate(-96.7,-108.0151)">
	<path
   class="st0"
   d="m 215.9,381.7 c 5.3,3.8 10.7,3.7 16.1,3.5 5.1,-0.2 8.4,1.8 10.6,6.9 10.4,24.3 35.4,38 60.9,33.5 26,-4.5 44.7,-25.5 46.5,-52.3 0.2,-3 0,-6.6 3.8,-7.2 4.7,-0.8 5.3,2.7 5.6,6.5 1.5,26 18.8,46.7 43.5,52.3 26,5.9 52.6,-7.1 63.4,-31.7 2.5,-5.8 6,-8.4 12.2,-8.1 7.9,0.3 7.9,0.1 15.7,-4.2 0,2.4 0,4.6 0,6.7 0,47.2 0,94.5 0,141.7 0,4.4 0,8.8 2.7,12.7 3.5,4.8 8.3,6.5 14.1,6.4 25.8,-0.1 51.6,-0.1 77.5,0 10.6,0 19.3,6.8 22.3,16.8 3,9.9 -0.8,20.6 -9.4,26.4 -4.1,2.8 -8.6,4 -13.6,4 -27,-0.1 -54,0.1 -81.1,-0.1 -31.5,-0.2 -58.6,-26.6 -59.8,-58.1 -0.3,-7.8 -0.2,-15.6 -0.2,-23.4 0,-3.9 -1.3,-7.2 -5.4,-7.2 -4.2,0 -5.5,3.3 -5.5,7.1 0,19 0.2,38 -0.1,57 -0.2,14.2 -10.7,24.1 -24.1,23.6 -12.6,-0.5 -21.8,-10.2 -22.1,-23.8 -0.3,-17.6 -0.2,-35.2 -0.3,-52.8 0,-1.6 0,-3.2 0,-4.8 -0.1,-3.7 -1.8,-6.4 -5.7,-6.3 -3.5,0.1 -5.1,2.8 -5.2,6.2 0,4.2 0,8.4 0,12.6 0,15 0,30 0,45 -0.1,13.7 -9.5,23.6 -22.5,23.9 -13.1,0.2 -23,-9.2 -23.4,-22.9 -0.5,-18.2 -0.5,-36.4 -0.7,-54.6 0,-2 0,-4 -0.4,-6 -0.6,-2.6 -2.4,-4.3 -5.1,-4.3 -2.7,0 -4.6,1.7 -5.2,4.2 -0.5,1.9 -0.4,4 -0.4,6 -0.1,18.2 0,36.4 -0.3,54.6 -0.2,13.1 -9.7,22.6 -22.2,23 -12.6,0.4 -23.1,-8.5 -23.6,-21.4 -0.7,-18.6 -0.3,-37.2 -0.5,-55.8 0,-4.3 1.2,-10.1 -5.1,-10.3 -6.7,-0.2 -5.7,5.8 -5.8,10.3 -0.3,9.6 0.7,19.2 -1.2,28.7 -5.8,29.5 -30,49.4 -60.1,49.4 -26.6,0 -53.2,0 -79.9,0 -15.1,0 -25.2,-9.6 -25.2,-23.7 0,-13.9 10.3,-23.5 25.4,-23.5 25.2,0 50.4,0 75.7,0 12.9,0 17.8,-4.8 17.8,-17.7 0,-47.2 0,-94.5 0,-141.7 0.3,-2 0.3,-4.2 0.3,-7.1 z"
   id="path1262" />
	<path
   class="st11"
   d="m 293,362.2 c -2.8,0.1 -5,1.7 -6.3,4.4 -1.5,3 -0.8,5.8 1.2,8.3 3.4,4.3 0.5,12.6 -4.7,13.8 -1.5,0.4 -3,1.2 -4.2,2.1 -2.4,2 -3.8,0.6 -5.5,-1 -1.8,-1.7 -2.5,-3 -1,-5.6 3.4,-5.7 2.4,-8 -4.3,-9.9 -2.7,-0.7 -2.8,-2.2 -2.8,-4.3 0,-2.3 0.1,-4 3,-4.9 6.7,-1.9 7.6,-4.1 4.2,-9.9 -1.5,-2.6 -0.7,-3.9 1,-5.6 1.7,-1.7 3.1,-2.5 5.6,-0.9 5.5,3.4 8.3,2.3 9.7,-3.7 0.7,-3 2.2,-3.7 5,-3.7 2.6,0 3.8,0.8 4.4,3.5 1.5,6 4.4,7.2 9.8,3.8 2.5,-1.6 3.8,-1 5.5,0.9 1.5,1.7 2.9,2.8 1.3,5.5 -3.6,5.9 -2.7,8.3 3.8,10.1 2.8,0.7 3.4,2.1 3.3,4.6 -0.1,2.4 -0.2,4 -3.2,4.7 -6.3,1.5 -7.6,4.4 -4.3,9.5 1.8,2.7 1,4.1 -0.9,6 -1.8,1.8 -3.4,2.6 -5.6,0.7 -3,-2.5 -8.4,-1.5 -9.3,-7.4 -0.5,-3.5 -2.9,-6.2 1.1,-9.3 2.3,-1.8 2.1,-5.1 0.5,-7.8 -1.7,-2.6 -4,-3.9 -7.3,-3.9 z"
   id="path1264" />
	<path
   class="st11"
   d="m 422.7,370.1 c -0.3,-3.9 -2.1,-6.4 -5.4,-7.5 -3.2,-1.1 -6,-0.2 -8.1,2.4 -2.3,2.7 -2.5,5.8 -0.7,8.9 4.2,6.9 2.3,12.6 -5.4,15.2 -2.4,0.8 -4.1,5.1 -7.6,1.6 -2.2,-2.2 -3.6,-3.7 -1.3,-7 3.1,-4.4 1.7,-7.9 -3.7,-9 -3,-0.6 -3.9,-1.8 -3.9,-4.7 0,-2.9 0.9,-4.1 3.8,-4.8 5.6,-1.4 6.8,-4.4 3.6,-9.4 -1.8,-2.7 -1,-4.1 1,-6 1.9,-1.8 3.2,-2.2 5.6,-0.7 5.3,3.4 8.1,2.2 9.6,-4 0.7,-2.8 1.9,-3.4 4.5,-3.5 2.8,0 4.2,0.6 4.9,3.7 1.3,5.7 4.5,7 9.3,3.9 2.5,-1.6 4,-1.5 6.1,0.6 2.1,2.1 2.2,3.6 0.6,6.1 -3.1,5 -1.9,7.9 3.8,9.3 2.9,0.7 3.8,1.9 3.8,4.9 0,3 -1.1,4 -4,4.6 -5.5,1.1 -6.8,4.3 -3.8,9 1.7,2.7 1.7,4.3 -0.6,6.6 -2.3,2.3 -4.1,2.3 -6,0.2 -2.3,-2.4 -7.1,-0.1 -8.1,-5.2 -0.9,-4.3 -4.1,-8.2 0.9,-12 0.8,-0.7 0.8,-2.4 1.1,-3.2 z"
   id="path1266" />
	<g
   id="g1274">
		<path
   class="st12"
   d="m 196.1,233.1 v 0 c -6.9,-9.6 -4.7,-22.9 4.9,-29.8 l 115,-82.8 24.9,34.7 -115.1,82.7 c -9.5,6.9 -22.8,4.7 -29.7,-4.8 z"
   id="path1268" />
		<line
   class="st13"
   x1="310.60001"
   y1="113"
   x2="346.39999"
   y2="162.7"
   id="line1270" />
		<path
   class="st0"
   d="m 261.7,162 55,7 -95.1,68.4 c -8.5,6.1 -20.3,4.2 -26.3,-4.3 v 0 c -6.1,-8.5 -4.2,-20.3 4.3,-26.3 z"
   id="path1272" />
	</g>
	<path
   class="st0"
   d="m 370.3,191.4 -12.6,-20.6 -11.5,18.8 c -1.7,2.4 -2.8,5.2 -2.8,8.4 0,7.9 6.4,14.2 14.2,14.2 7.9,0 14.2,-6.4 14.2,-14.2 0.1,-2.4 -0.5,-4.7 -1.5,-6.6 z"
   id="path1276" />
	<path
   class="st0"
   d="m 423.2,250.1 c -14.3,-7.8 -28.6,-13.2 -42.8,-16.2 -1.8,-0.4 -3.3,1.2 -3,3 0.2,1 0.3,2 0.3,3 0,9.8 -8.8,17.8 -19.6,17.8 -10.8,0 -19.6,-8 -19.6,-17.8 0,-1.4 0.2,-2.8 0.5,-4.1 0.5,-1.8 -1,-3.5 -2.8,-3.2 -20.9,3.1 -41.5,11.4 -61.6,25 -34,23 -62.3,74.5 -57.5,102.3 3.8,-3.2 8.2,-3 12.6,-2.9 5.9,0 10.1,-2.5 12.6,-8.1 10.2,-22.4 27.7,-34.2 52.3,-34.4 40,-0.3 80,-0.2 119.9,0 22.8,0.1 42.9,14 52.3,34.7 2.2,4.9 6.1,7.4 10.9,7.6 5.5,0.2 10.7,0.5 16.2,4.9 -5.2,-49.9 -27.8,-88 -70.7,-111.6 z"
   id="path1278" />
	<g
   id="g1285">
		<g
   id="g3493_1_">
			<g
   id="g3503_1_"
   transform="translate(84.4331,106.7368)">
				<path
   id="path3505_1_"
   class="st0"
   d="m 237.5,263.1 -0.2,4.2 -3.7,0.7 c -3.2,0.6 -3.8,1.1 -4.7,3.5 -0.9,2.5 -0.8,3 1,5.8 l 2,3.1 -2.7,2.9 c -1.5,1.6 -2.9,2.9 -3.2,2.9 -0.3,0 -1.8,-0.9 -3.2,-2 -1.8,-1.4 -3.3,-1.9 -4.6,-1.6 -1.7,0.4 -2.1,-0.1 -4.5,-5.7 l -2.6,-6.2 1.7,-1.2 c 2.2,-1.5 3.8,-5.4 3.3,-7.8 -1.1,-5.6 -9.1,-7.6 -12.8,-3.2 -2.7,3.1 -2.2,8 1.1,10.6 l 2.2,1.7 -2.7,6.1 c -2.4,5.5 -2.9,6.1 -4.6,5.7 -1.3,-0.3 -2.7,0.2 -4.5,1.6 -1.5,1.1 -2.8,2 -3,2 -0.2,0 -1.6,-1.3 -3.1,-2.8 l -2.7,-2.8 1.9,-3.5 c 1.7,-3.1 1.8,-3.7 0.8,-5.8 -0.9,-1.8 -1.9,-2.5 -4.5,-3.1 l -3.4,-0.7 v -4.3 -4.3 l 3.2,-0.5 c 2.5,-0.4 3.5,-1.1 4.4,-2.8 1.6,-3 1.5,-3.5 -0.8,-7 l -2,-2.9 2.6,-2.6 c 3,-3.1 3.5,-3.2 7.1,-0.8 2.5,1.7 3,1.8 5.4,0.8 1.8,-0.7 2.8,-1.8 3.1,-3.3 1.1,-5.2 1,-5 5.5,-5 h 4.3 l 0.5,3.6 c 0.5,3.1 0.9,3.8 3.1,4.7 2.3,1 2.8,0.9 5.4,-0.8 1.5,-1 3.2,-1.9 3.7,-1.9 0.5,0 2,1.2 3.5,2.7 l 2.6,2.7 -2.2,3.3 c -2.1,3.2 -2.2,3.4 -0.9,6 1.1,2.3 1.8,2.8 5,3.2 l 3.7,0.6 z M 251,260 c -2.9,-25.4 -27.1,-43 -50.6,-36.9 -19.5,5 -32.5,21.3 -32.5,40.7 0,18.7 13.1,35.1 32.1,40.4 5.7,1.6 15.6,1.1 22.4,-1.1 17.7,-5.6 30.6,-25 28.6,-43.1" />
			</g>
			<g
   id="g3507_1_"
   transform="translate(114.4883,106.7017)">
				<path
   id="path3509_1_"
   class="st0"
   d="m 328.9,263.2 c 0,4.5 -0.7,5.2 -5.3,5.2 -1.1,0 -2.1,0.9 -3,2.7 -1.3,2.6 -1.2,2.8 0.7,5.4 1.1,1.5 2,3.1 2,3.5 0,0.4 -1.2,2.1 -2.8,3.6 l -2.8,2.7 -3,-2.1 c -2,-1.4 -3.6,-2 -4.8,-1.6 -1.3,0.3 -1.9,0.1 -2.3,-1 -0.3,-0.8 -1.4,-3.6 -2.6,-6.2 l -2,-4.7 1.7,-1.3 c 6,-4.7 3.6,-13.3 -3.7,-13.3 -7.1,0 -10.3,7.8 -5.1,12.5 l 2.5,2.3 -2.6,6.1 c -2.4,5.5 -2.8,6 -4.5,5.6 -1.3,-0.3 -2.7,0.2 -4.6,1.6 v 0 c -1.5,1.1 -3,2 -3.4,2 -0.4,0 -1.9,-1.3 -3.4,-2.8 l -2.7,-2.8 2.2,-3.4 c 2.1,-3.2 2.2,-3.5 1.1,-5.8 -0.9,-1.9 -2,-2.6 -4.7,-3.3 l -3.6,-0.9 -0.2,-4.2 -0.2,-4.2 3.7,-0.6 c 3.2,-0.5 3.9,-0.9 5,-3.2 1.2,-2.6 1.2,-2.8 -0.9,-6 l -2.2,-3.4 2.9,-2.9 c 2.7,-2.7 3,-2.8 4.7,-1.8 1,0.6 2.5,1.6 3.4,2.1 1.3,0.8 2.1,0.8 4.2,-0.1 2.2,-0.9 2.6,-1.6 3.1,-4.7 l 0.5,-3.6 h 4.2 4.2 l 0.9,3.6 c 0.7,2.9 1.4,3.8 3.5,4.7 2.4,1 2.8,0.9 5.4,-0.8 3.6,-2.4 4.1,-2.4 6.7,0.4 2.6,2.7 2.7,3.6 0.5,6.7 -1.2,1.7 -1.5,3 -1.2,4.7 0.6,2.9 1.6,3.8 5.4,4.5 l 3,0.6 v 4.2 z m 12.8,-7.8 c -4.8,-22.8 -28.3,-37.9 -50.1,-32.3 -16.3,4.2 -27.7,15.9 -31.3,32.2 -3.9,17.6 5.6,37.3 22,45.6 1.5,0.7 5.3,2 8.4,2.9 7.1,1.9 13.2,2 19.4,0.4 22.2,-5.8 36.1,-27.2 31.6,-48.8" />
			</g>
		</g>
	</g>
</g>
</svg>
