<?xml version="1.0" encoding="UTF-8" standalone="no"?>
<!-- Generator: Adobe Illustrator 24.1.1, SVG Export Plug-In . SVG Version: 6.00 Build 0)  -->

<svg
   version="1.1"
   id="Capa_1"
   x="0px"
   y="0px"
   viewBox="0 0 551.77642 462.05874"
   xml:space="preserve"
   sodipodi:docname="logo-incubator.svg"
   width="551.77643"
   height="462.05875"
   inkscape:version="1.1 (c4e8f9e, 2021-05-24)"
   xmlns:inkscape="http://www.inkscape.org/namespaces/inkscape"
   xmlns:sodipodi="http://sodipodi.sourceforge.net/DTD/sodipodi-0.dtd"
   xmlns="http://www.w3.org/2000/svg"
   xmlns:svg="http://www.w3.org/2000/svg"><defs
   id="defs1067" /><sodipodi:namedview
   id="namedview1065"
   pagecolor="#ffffff"
   bordercolor="#666666"
   borderopacity="1.0"
   inkscape:pageshadow="2"
   inkscape:pageopacity="0.0"
   inkscape:pagecheckerboard="0"
   showgrid="false"
   fit-margin-top="0"
   fit-margin-left="0"
   fit-margin-right="0"
   fit-margin-bottom="0"
   inkscape:zoom="1.1895019"
   inkscape:cx="276.16601"
   inkscape:cy="230.76886"
   inkscape:window-width="2225"
   inkscape:window-height="1027"
   inkscape:window-x="0"
   inkscape:window-y="25"
   inkscape:window-maximized="0"
   inkscape:current-layer="Capa_1" />
<style
   type="text/css"
   id="style1026">
	.st0{fill:#501287;}
	.st1{fill:#501288;}
	.st2{fill:#2B0D51;}
	.st3{fill:#7A7A7A;}
	.st4{fill:#6D6D6D;}
	.st5{fill:#4F4F4F;}
	.st6{fill:#999999;}
	.st7{display:none;fill:#FFF800;}
	.st8{fill:#FFF800;}
	.st9{clip-path:url(#SVGID_2_);}
	.st10{clip-path:url(#SVGID_4_);}
	.st11{fill:#FEFEFE;}
	.st12{fill:#FEFEFE;stroke:#501287;stroke-width:9.9698;stroke-miterlimit:10;}
	.st13{fill:#FEFEFE;stroke:#501287;stroke-width:9.9698;stroke-linecap:round;stroke-miterlimit:10;}
</style>
<g
   id="g1062"
   transform="translate(-78.2,-123.33237)">
	<g
   id="g1036">
		<path
   class="st0"
   d="m 205.9,284.5 c 5.7,4 11.5,3.9 17.3,3.7 5.5,-0.2 9,2 11.3,7.3 11.1,26 38,40.7 65.2,35.9 27.9,-4.9 47.9,-27.4 49.8,-56 0.2,-3.3 0,-7.1 4,-7.7 5.1,-0.8 5.7,2.9 6,7 1.6,27.9 20.1,50 46.6,56.1 27.9,6.4 56.3,-7.7 67.9,-34 2.7,-6.2 6.4,-9 13.1,-8.7 8.4,0.3 8.4,0.1 16.9,-4.5 0,2.6 0,4.9 0,7.2 0,50.6 0,101.2 0,151.8 0,4.7 0,9.5 2.9,13.6 3.7,5.2 8.9,6.9 15.1,6.9 27.7,-0.1 55.3,-0.1 83,0 11.3,0 20.7,7.3 23.9,18 3.2,10.6 -0.9,22.1 -10.1,28.3 -4.4,3 -9.2,4.3 -14.6,4.2 -29,-0.1 -57.9,0.1 -86.9,-0.1 -33.8,-0.2 -62.8,-28.5 -64.1,-62.3 -0.3,-8.4 -0.2,-16.7 -0.2,-25.1 0,-4.2 -1.4,-7.7 -5.8,-7.7 -4.5,0 -5.9,3.5 -5.9,7.6 0,20.4 0.2,40.8 -0.1,61.1 -0.2,15.2 -11.4,25.9 -25.8,25.3 -13.5,-0.6 -23.4,-10.9 -23.7,-25.5 -0.3,-18.9 -0.2,-37.7 -0.3,-56.6 0,-1.7 0,-3.4 0,-5.1 -0.2,-3.9 -2,-6.9 -6.1,-6.8 -3.7,0.1 -5.5,3 -5.5,6.7 0,4.5 0,9 0,13.5 0,16.1 0,32.2 0,48.3 -0.1,14.7 -10.1,25.3 -24.1,25.6 -14,0.3 -24.7,-9.9 -25,-24.6 -0.5,-19.5 -0.5,-39 -0.8,-58.5 0,-2.1 0,-4.3 -0.4,-6.4 -0.6,-2.8 -2.6,-4.6 -5.4,-4.6 -2.9,0 -4.9,1.8 -5.6,4.5 -0.5,2 -0.4,4.3 -0.4,6.4 -0.1,19.5 0,39 -0.3,58.5 -0.3,14 -10.4,24.2 -23.8,24.7 -13.5,0.5 -24.8,-9.1 -25.3,-22.9 -0.7,-19.9 -0.3,-39.9 -0.5,-59.8 0,-4.6 1.2,-10.8 -5.5,-11 -7.2,-0.2 -6.1,6.2 -6.2,11.1 -0.3,10.3 0.8,20.6 -1.3,30.8 -6.2,31.6 -32.2,53 -64.4,53 -28.5,0 -57.1,0 -85.6,0 -16.1,0 -27,-10.3 -27,-25.4 0,-14.9 11.1,-25.2 27.3,-25.2 27,0 54,0 81.1,0 13.9,0 19,-5.1 19.1,-19 0,-50.6 0,-101.2 0,-151.8 0.2,-2.3 0.2,-4.6 0.2,-7.8 z"
   id="path1028" />
		<path
   class="st0"
   d="m 504.2,263.1 c -5.9,-4.7 -11.6,-5 -17.4,-5.2 -5.3,-0.2 -9.4,-3 -11.8,-8.2 -11,-24.3 -29.9,-36.9 -56.6,-37.1 -42.7,-0.2 -85.3,-0.3 -128,0 -26.4,0.2 -45.2,12.8 -56.1,36.8 -2.7,6 -7.2,8.7 -13.5,8.6 -4.7,0 -9.5,-0.2 -13.6,3.2 -5.1,-29.8 25.2,-84.9 61.7,-109.6 C 320,117 374,114 428,143.5 c 46.1,25.3 70.3,66.1 76.2,119.6 z"
   id="path1030" />
		<path
   class="st1"
   d="m 289.4,227.6 c -24.5,0.1 -44.5,20.2 -44.5,44.8 0,24.8 20.2,44.8 45.2,44.7 24.6,-0.1 44.6,-20.3 44.6,-44.8 -0.1,-24.9 -20.4,-44.8 -45.3,-44.7 z m 30.1,44.1 c -0.1,2.6 -0.3,4.2 -3.4,5 -6.8,1.6 -8.1,4.7 -4.6,10.2 1.9,2.9 1.1,4.4 -1,6.5 -2,2 -3.6,2.7 -6,0.7 -3.2,-2.7 -9,-1.6 -10,-7.9 -0.6,-3.7 -3.1,-6.7 1.2,-10 2.4,-1.9 2.2,-5.4 0.5,-8.3 -1.6,-2.8 -4.1,-4.3 -7.7,-4.3 -3,0.1 -5.3,1.8 -6.8,4.7 -1.6,3.2 -0.9,6.2 1.3,8.9 3.7,4.6 0.5,13.5 -5.1,14.8 -1.6,0.4 -3.2,1.2 -4.5,2.3 -2.6,2.1 -4.1,0.7 -5.9,-1.1 -1.9,-1.8 -2.7,-3.3 -1.1,-6 3.6,-6.1 2.6,-8.6 -4.7,-10.6 -2.9,-0.8 -3,-2.4 -3.1,-4.7 0,-2.5 0.1,-4.3 3.2,-5.2 7.2,-2.1 8.2,-4.4 4.5,-10.6 -1.7,-2.8 -0.7,-4.1 1.1,-6 1.9,-1.9 3.3,-2.7 6,-1 5.9,3.6 8.9,2.5 10.4,-3.9 0.8,-3.2 2.3,-4 5.3,-4 2.8,0 4,0.9 4.8,3.8 1.6,6.5 4.7,7.7 10.5,4.1 2.7,-1.7 4.1,-1.1 5.9,0.9 1.6,1.8 3.2,3 1.4,5.9 -3.9,6.4 -2.9,8.9 4.1,10.8 3.1,0.9 3.8,2.3 3.7,5 z"
   id="path1032" />
		<path
   class="st1"
   d="m 419.7,227.6 c -25,-0.1 -45,19.9 -45,44.9 0,24.6 19.9,44.5 44.6,44.5 24.9,0.1 45.1,-20 45.1,-44.8 0,-24.5 -20.2,-44.6 -44.7,-44.6 z m 25.8,49.3 c -5.9,1.2 -7.3,4.6 -4.1,9.6 1.8,2.9 1.8,4.6 -0.7,7.1 -2.4,2.4 -4.4,2.4 -6.5,0.2 -2.4,-2.6 -7.6,-0.1 -8.7,-5.6 -1,-4.6 -4.4,-8.8 1,-12.9 0.8,-0.6 0.8,-2.3 1.1,-3.3 -0.3,-4.2 -2.2,-6.9 -5.8,-8.1 -3.4,-1.1 -6.4,-0.2 -8.7,2.5 -2.5,2.9 -2.7,6.2 -0.7,9.5 4.5,7.4 2.4,13.5 -5.7,16.3 -2.6,0.9 -4.4,5.5 -8.2,1.7 -2.3,-2.3 -3.8,-4 -1.4,-7.5 3.4,-4.7 1.8,-8.4 -4,-9.7 -3.2,-0.7 -4.1,-1.9 -4.2,-5.1 0,-3.1 1,-4.4 4.1,-5.2 6.1,-1.5 7.3,-4.7 3.9,-10.1 -1.9,-2.9 -1.1,-4.4 1,-6.5 2,-2 3.4,-2.4 6,-0.7 5.7,3.6 8.7,2.4 10.3,-4.3 0.7,-2.9 2,-3.7 4.8,-3.7 3,0 4.5,0.6 5.3,4 1.4,6.1 4.8,7.5 10,4.2 2.7,-1.7 4.3,-1.6 6.6,0.7 2.3,2.3 2.4,3.9 0.7,6.6 -3.3,5.3 -2.1,8.5 4.1,10 3.1,0.8 4.1,2.1 4.1,5.2 -0.1,3.3 -1.2,4.4 -4.3,5.1 z"
   id="path1034" />
	</g>
	<g
   id="g1060">
		<path
   class="st2"
   d="m 536,427.1 c -4.5,15.2 -15.2,25 -29.9,31.4 -12.5,5.4 -25.6,8.9 -39,11.7 -2.9,0.6 -4.1,1.7 -4.1,4.7 -0.5,24.6 -2.1,49.1 -3.9,73.7 -0.7,9.6 -1.6,19.1 -2.7,28.6 -0.7,6.5 -6.1,9.7 -12.5,7.5 -8.4,-2.9 -16.8,-5.2 -25.9,-4.3 -4.1,0.4 -8.1,1.5 -12.1,2.4 -12.5,3 -24.7,2 -36.7,-2.6 -4.8,-1.9 -6.7,-4.7 -6.4,-9.7 0.2,-3.8 0.5,-7.6 1,-11.4 0.3,-2.2 -0.5,-2.7 -2.8,-2.6 -11.5,0.5 -22.8,-0.4 -33.6,-4.4 -7,-2.6 -13.3,-6.1 -17.7,-12.1 -2.5,-3.3 -2.5,-6.2 0.4,-8.7 10.7,-9.2 16.5,-21.2 21.6,-33.6 1.9,-4.6 3.3,-9.4 5.2,-14 1.1,-2.6 0.4,-3 -2.3,-3.1 -18.3,-0.3 -36.6,-1.4 -54.8,-3.5 -24.5,-2.8 -48.9,-6.5 -72.3,-14.6 -10.4,-3.6 -20.6,-7.6 -28.5,-15.3 -12.3,-12 -15.7,-26.6 -13.1,-42.8 0.7,-4.3 1.6,-8.6 3.4,-12.7 1,-2.3 0.7,-4.3 -0.2,-6.6 -5.6,-13.7 -6.1,-27.4 1,-40.8 4.3,-8.2 16.4,-14.3 25.4,-13.1 7.9,1 13,6.4 12.8,14.7 -0.1,7.3 0.5,10.2 11,13.4 14.3,4.3 29.1,5.7 44,6.9 27.3,2.1 54.7,3.8 82.1,4 5.9,0 11.9,0 17.8,-0.1 1.2,0 2.3,0.1 2.7,-1.6 2.9,-13.2 12.7,-20.1 25.2,-23.8 17.1,-5.1 34.2,-4.4 50.7,2.7 7.4,3.2 13.3,8 16.8,15.1 0.4,0.8 0.6,1.7 2,1.5 9.4,-1.6 18.9,-2.7 27.7,-6.7 4.1,-1.8 6.2,-4.6 5.9,-9 -0.1,-1.2 -0.1,-2.3 0,-3.5 1.1,-11 9.5,-16.1 21.4,-13 12.7,3.4 18.7,12.3 21.2,23.9 0.4,7.4 0.6,11.2 0.4,15.5 0.1,5 -0.5,9.8 -2.9,14.4 -0.7,1.4 -1,2.9 -0.5,4.4 2.2,5.7 3.1,11.7 3.7,17.7 0.2,11.8 -1,17.5 -1.5,19.4 z"
   id="path1038" />
		<path
   class="st3"
   d="m 380.4,441.6 c -0.5,-22.3 -1.1,-43.8 -2.6,-65.2 -0.6,-8.8 3.1,-15.2 12.4,-18.7 16.9,-6.6 33.8,-6.2 50,2.3 4.3,2.3 7,5.7 8.2,10.5 3.2,12.3 4.3,24.7 3.7,37.4 -0.8,16.3 -0.7,32.6 -1.1,48.8 -0.2,10.5 -0.7,21 -0.9,31.5 -0.1,2.5 -0.8,3.5 -3.7,3.5 -21,-0.1 -42,-0.1 -62.9,0 -2.8,0 -3.7,-0.6 -3.6,-3.4 0.9,-15.9 0.5,-31.7 0.5,-46.7 z"
   id="path1040" />
		<path
   class="st4"
   d="m 366.8,406.9 c 0.1,1 0.4,2 0.4,3.1 0.4,18.6 1,37.2 0.9,55.7 0,2.8 -1,3.1 -3.5,3.2 -34.1,0.6 -68.1,-0.8 -101.8,-5.8 -19.4,-2.8 -38.6,-6.6 -56.8,-13.8 -8.7,-3.4 -16.9,-7.4 -22.3,-15.4 -7.1,-10.5 -7.1,-21.7 -4.2,-33.3 0.3,-1.3 0.8,-1.4 2,-0.8 1.6,0.8 3.3,1.5 4.9,2.1 3.8,1.4 6.8,0.5 9.2,-2.6 1.5,-1 3,-0.4 4.5,0 24.6,7.2 49.8,10.5 75.3,13 25.9,2.5 51.8,1.8 77.7,2 3.3,0 6.5,-0.8 9.8,-0.7 2,0 2.7,-1.1 2.8,-2.9 -0.1,-1.3 -0.2,-2.8 1.1,-3.8 z"
   id="path1042" />
		<path
   class="st3"
   d="m 366.8,406.9 c -0.1,2.4 0.5,5.3 -0.7,7.1 -1.3,1.8 -4.6,0.2 -6.9,0.8 -4.3,1.1 -8.7,0.5 -13,0.6 -10.5,0.1 -21.1,0 -31.6,0 -15.4,0 -30.8,-1.2 -46.2,-2.7 -20.1,-2 -40.1,-4.8 -59.7,-9.8 -4.4,-1.1 -8.8,-2.3 -13.2,-3.5 0.6,-5.5 -0.1,-6.7 -5.5,-8.5 -3.3,-1.1 -5.6,-3.3 -7.2,-6 -6.2,-10.7 -7.3,-21.8 -2.6,-33.3 2.3,-5.5 7.1,-7.9 13,-8.7 1.7,-0.2 2.5,0.5 2.6,2 0.1,1.4 0.3,2.8 0.3,4.1 -0.1,8.7 4.6,14.6 12.2,18.6 7.9,4.1 16.7,5.5 25.4,6.8 33.2,4.9 66.8,6.3 100.4,7.2 9.6,0.3 19.2,0.2 28.7,0.3 1.7,0 3,-0.2 3.1,2.2 0.2,7.6 0.6,15.2 0.9,22.8 z"
   id="path1044" />
		<path
   class="st4"
   d="m 413.3,533 c 10.3,0 20.6,0.1 30.9,-0.1 2.7,0 3.6,0.6 3.4,3.2 -1.1,11.4 -2,22.7 -2.9,34.1 -0.1,1.6 -0.6,2 -2.2,1.4 -13.9,-5.1 -27.7,-3.7 -41.7,-0.2 -7.8,2 -15.6,1.1 -23.3,-1.2 -1.8,-0.5 -2.2,-1.4 -2.1,-3 0.8,-10.6 1.6,-21.2 2.3,-31.7 0.2,-2.4 1.4,-2.7 3.5,-2.7 10.7,0.2 21.4,0.2 32.1,0.2 z"
   id="path1046" />
		<path
   class="st4"
   d="m 486.1,452.9 c -7.2,2.8 -14.7,4.3 -22.1,5.9 0,-7.2 -0.2,-14.2 0,-21.2 0.3,-11.1 -0.3,-22.2 0.9,-33.2 4.5,-1.9 9.4,-1.6 14.2,-2.3 6.3,-0.9 12.7,-1.6 19,-2.8 2.8,0 5.5,-2 8.4,-0.5 1.1,2.1 2.8,3.4 5.1,4.2 2.8,3.6 2.3,8 2.2,11.9 -0.1,9.8 -3.5,18.6 -10,26.4 -4.8,5.7 -11,8.9 -17.7,11.6 z"
   id="path1048" />
		<path
   class="st5"
   d="m 367.7,493.8 c -0.9,16 -1.7,32 -2.6,48 -0.1,1.2 0.2,2.6 -1.9,2.7 -11.7,0.5 -23.2,0.1 -34.1,-4.7 -0.3,-0.1 -0.7,-0.3 -1,-0.4 -5.7,-2.7 -5.6,-2.7 -1.8,-7.4 10.1,-12.5 16.1,-26.9 21.3,-41.7 1.1,-3.1 1.4,-7 3.6,-8.8 2.3,-1.9 6.5,-0.6 9.9,-0.6 6.5,-0.1 6.5,-0.1 6.4,6.2 0,2.3 0,4.6 0,6.9 0.1,-0.2 0.2,-0.2 0.2,-0.2 z"
   id="path1050" />
		<path
   class="st3"
   d="m 498.5,400.2 c -11.1,2.1 -22.2,3.6 -33.5,4.2 -0.3,-8.9 -0.4,-17.7 -2,-26.5 -0.3,-1.7 0.1,-2.4 2.1,-2.7 7.1,-0.9 14.1,-2.3 20.9,-4.2 7.7,-2.2 14.6,-5.5 18.6,-12.7 1,-1.9 1.6,-3.8 2.1,-5.9 0.5,-0.6 -0.2,-1.9 0.9,-2 1.3,-0.2 1.8,1 2.3,1.9 3.8,6.8 4.8,14.2 4.1,21.7 -0.6,7.2 -2.7,13.9 -7.1,20 -2.3,2.9 -5.1,4.8 -8.4,6.2 z"
   id="path1052" />
		<path
   class="st6"
   d="m 414.3,503.4 c 10.7,0 21.3,0.1 32,-0.1 2.6,0 3.2,0.7 2.9,3.1 -0.5,4 -0.5,8.1 -0.7,12.1 -0.1,1.8 -0.7,2.6 -2.8,2.6 -21.4,-0.1 -42.9,-0.1 -64.3,0 -2.2,0 -2.6,-0.8 -2.5,-2.6 0.3,-3.9 0.5,-7.8 0.4,-11.8 0,-2.6 0.8,-3.5 3.7,-3.4 10.5,0.2 20.9,0.1 31.3,0.1 z"
   id="path1054" />
		<path
   class="st5"
   d="m 498.5,400.2 c 6.2,-3.6 9.9,-8.8 12,-15.3 3.3,-10.4 3.9,-20.7 -1,-30.8 -0.5,-1.1 -1,-2.3 -1.7,-3.6 -0.5,0.8 -0.9,1.3 -1.3,1.9 0,-1.4 0,-2.8 0.1,-4.1 0.2,-5.8 1.2,-6.5 7,-4.4 4.3,1.5 7.6,4.1 9.1,8.3 4.5,12.5 3.6,24.4 -4.9,35.3 -1.4,1.8 -3.3,3 -5.6,3.7 -5,1.5 -5.8,2.6 -5.8,7.7 -2.6,0.3 -5.3,0.8 -7.9,1.3 z"
   id="path1056" />
		<path
   class="st5"
   d="m 486.1,452.9 c 2.1,-1.3 4.2,-2.6 6.4,-3.8 12,-6.9 18.2,-17 19.9,-30.2 0.7,-5.5 -0.1,-10.7 -0.9,-16 4,0 7.5,-1.5 10.9,-3.4 6,14.9 2.7,33.5 -12.2,43.2 -7.4,4.8 -15.5,8.1 -24.1,10.2 z"
   id="path1058" />
	</g>
</g>
</svg>
