<?xml version="1.0" encoding="UTF-8" standalone="no"?>
<!-- Generator: Adobe Illustrator 24.1.1, SVG Export Plug-In . SVG Version: 6.00 Build 0)  -->

<svg
   version="1.1"
   id="Capa_1"
   x="0px"
   y="0px"
   viewBox="0 0 614.69506 291.78347"
   xml:space="preserve"
   sodipodi:docname="logo-bioreactor.svg"
   width="614.69507"
   height="291.78348"
   inkscape:version="1.1 (c4e8f9e, 2021-05-24)"
   xmlns:inkscape="http://www.inkscape.org/namespaces/inkscape"
   xmlns:sodipodi="http://sodipodi.sourceforge.net/DTD/sodipodi-0.dtd"
   xmlns="http://www.w3.org/2000/svg"
   xmlns:svg="http://www.w3.org/2000/svg"><defs
   id="defs845" /><sodipodi:namedview
   id="namedview843"
   pagecolor="#ffffff"
   bordercolor="#666666"
   borderopacity="1.0"
   inkscape:pageshadow="2"
   inkscape:pageopacity="0.0"
   inkscape:pagecheckerboard="0"
   showgrid="false"
   fit-margin-top="0"
   fit-margin-left="0"
   fit-margin-right="0"
   fit-margin-bottom="0"
   inkscape:zoom="1.195146"
   inkscape:cx="307.4938"
   inkscape:cy="146.00726"
   inkscape:window-width="2225"
   inkscape:window-height="1027"
   inkscape:window-x="0"
   inkscape:window-y="25"
   inkscape:window-maximized="0"
   inkscape:current-layer="Capa_1" />
<style
   type="text/css"
   id="style824">
	.st0{fill:#501287;}
	.st1{fill:#501288;}
	.st2{fill:#2B0D51;}
	.st3{fill:#7A7A7A;}
	.st4{fill:#6D6D6D;}
	.st5{fill:#4F4F4F;}
	.st6{fill:#999999;}
	.st7{display:none;fill:#FFF800;}
	.st8{fill:#FFF800;}
	.st9{clip-path:url(#SVGID_2_);}
	.st10{clip-path:url(#SVGID_4_);}
	.st11{fill:#FEFEFE;}
	.st12{fill:#FEFEFE;stroke:#501287;stroke-width:9.9698;stroke-miterlimit:10;}
	.st13{fill:#FEFEFE;stroke:#501287;stroke-width:9.9698;stroke-linecap:round;stroke-miterlimit:10;}
</style>
<g
   id="g840"
   transform="translate(-47,-208.34317)">
	<g
   id="g836">
		<path
   class="st0"
   d="m 152.9,308.6 c 4.7,0 8.1,-2 10.1,-6.4 8.1,-17.9 22.1,-27.3 41.8,-27.4 31.8,-0.2 63.5,-0.2 95.3,0 19.9,0.1 34,9.5 42.1,27.6 4.6,8.9 21.2,8 24.7,-0.2 8.1,-17.9 22.1,-27.3 41.8,-27.4 31.8,-0.2 63.5,-0.2 95.3,0 19.9,0.1 34,9.5 42.1,27.6 1.8,3.9 4.8,6 8.8,6.1 4.4,0.2 8.5,0.4 13,3.9 -4.4,-39.8 -22.4,-70.2 -56.7,-89 -40.2,-22 -80.5,-19.8 -118.5,6 -15.5,10.5 -29.5,28.4 -38,45.9 -9.2,-22 -24.8,-39.5 -47.5,-51.9 -40.2,-22 -80.5,-19.8 -118.5,6 -27.2,18.4 -49.7,59.4 -45.9,81.6 3.1,-2.5 6.6,-2.4 10.1,-2.4 z"
   id="path826" />
		<path
   class="st0"
   d="m 197.4,287 c -15.6,4 -26,17 -26,32.5 0,14.9 10.5,28.1 25.7,32.3 4.6,1.3 12.4,0.9 17.9,-0.9 14.1,-4.5 24.5,-20 22.8,-34.4 -2.3,-20.3 -21.6,-34.4 -40.4,-29.5 z m 29.7,31.9 -0.2,3.3 -3,0.6 c -2.6,0.5 -3.1,0.9 -3.7,2.8 -0.7,2 -0.6,2.4 0.8,4.6 l 1.6,2.4 -2.1,2.3 c -1.2,1.3 -2.3,2.3 -2.6,2.3 -0.2,0 -1.4,-0.7 -2.6,-1.6 -1.5,-1.1 -2.6,-1.5 -3.6,-1.3 -1.4,0.3 -1.7,-0.1 -3.6,-4.6 l -2.1,-4.7 1.4,-1 c 1.7,-1.2 3,-4.3 2.7,-6.3 -0.8,-4.5 -7.2,-6.1 -10.2,-2.6 -2.1,2.5 -1.8,6.4 0.8,8.5 l 1.7,1.4 -2.2,4.9 c -1.9,4.4 -2.3,4.9 -3.6,4.5 -1,-0.3 -2.2,0.1 -3.6,1.2 -1.2,0.9 -2.3,1.6 -2.4,1.6 -0.2,0 -1.3,-1 -2.5,-2.3 l -2.2,-2.3 1.5,-2.8 c 1.4,-2.5 1.4,-2.9 0.6,-4.6 -0.7,-1.4 -1.5,-2 -3.6,-2.4 l -2.7,-0.6 v -6.9 l 2.6,-0.4 c 2,-0.3 2.8,-0.8 3.5,-2.2 1.2,-2.4 1.2,-2.8 -0.7,-5.6 l -1.6,-2.3 2,-2.1 c 2.4,-2.5 2.8,-2.5 5.7,-0.6 2,1.4 2.4,1.4 4.3,0.6 1.4,-0.6 2.2,-1.4 2.5,-2.6 0.9,-4.1 0.8,-4 4.4,-4 h 3.4 l 0.4,2.9 c 0.4,2.5 0.7,3 2.5,3.7 1.9,0.8 2.3,0.7 4.3,-0.7 1.2,-0.8 2.5,-1.5 2.9,-1.5 0.4,0 1.6,1 2.8,2.2 l 2.1,2.2 -1.8,2.7 c -1.7,2.6 -1.7,2.7 -0.7,4.8 0.9,1.8 1.4,2.2 4,2.6 l 3,0.4 z"
   id="path828" />
		<path
   class="st0"
   d="m 294.2,286.9 c -13,3.3 -22.1,12.7 -25,25.8 -3.1,14 4.5,29.8 17.6,36.4 1.2,0.6 4.2,1.6 6.7,2.3 5.7,1.5 10.5,1.6 15.5,0.3 17.8,-4.5 28.9,-21.7 25.2,-38.9 -3.7,-18.3 -22.5,-30.4 -40,-25.9 z m 29.9,32 c 0,3.6 -0.6,4.1 -4.2,4.2 -0.9,0 -1.7,0.8 -2.4,2.2 -1,2.1 -1,2.3 0.5,4.3 0.9,1.2 1.6,2.4 1.6,2.8 0,0.4 -1,1.7 -2.2,2.9 l -2.2,2.2 -2.4,-1.7 c -1.6,-1.1 -2.9,-1.6 -3.9,-1.3 -1,0.3 -1.5,0 -1.8,-0.8 -0.2,-0.7 -1.1,-2.9 -2.1,-5 l -1.6,-3.8 1.3,-1.1 c 4.8,-3.8 2.9,-10.7 -2.9,-10.7 -5.7,0 -8.2,6.2 -4.1,10 l 2,1.8 -2.1,4.8 c -1.9,4.4 -2.2,4.8 -3.6,4.5 -1,-0.3 -2.2,0.1 -3.6,1.3 v 0 c -1.2,0.9 -2.4,1.6 -2.7,1.6 -0.3,0 -1.5,-1 -2.7,-2.2 l -2.2,-2.2 1.8,-2.7 c 1.7,-2.5 1.7,-2.8 0.9,-4.6 -0.7,-1.5 -1.6,-2.1 -3.8,-2.6 l -2.8,-0.7 -0.2,-3.3 -0.2,-3.3 3,-0.4 c 2.5,-0.4 3.1,-0.8 4,-2.6 1,-2.1 1,-2.2 -0.8,-4.8 l -1.8,-2.7 2.3,-2.3 c 2.1,-2.1 2.4,-2.2 3.8,-1.4 0.8,0.5 2,1.2 2.7,1.7 1,0.6 1.7,0.6 3.3,-0.1 1.7,-0.7 2.1,-1.3 2.5,-3.8 l 0.4,-2.9 h 6.8 l 0.7,2.9 c 0.6,2.3 1.1,3 2.8,3.7 1.9,0.8 2.3,0.7 4.3,-0.6 2.8,-1.9 3.3,-1.9 5.3,0.3 2.1,2.2 2.1,2.9 0.4,5.3 -1,1.3 -1.2,2.4 -0.9,3.7 0.5,2.4 1.3,3 4.3,3.6 l 2.4,0.4 v 3.4 z"
   id="path830" />
		<path
   class="st0"
   d="m 401.3,287 c -15.6,4 -26,17 -26,32.5 0,14.9 10.5,28.1 25.7,32.3 4.6,1.3 12.4,0.9 17.9,-0.9 14.1,-4.5 24.5,-20 22.8,-34.4 -2.2,-20.3 -21.6,-34.4 -40.4,-29.5 z m 29.7,31.9 -0.2,3.3 -3,0.6 c -2.6,0.5 -3.1,0.9 -3.7,2.8 -0.7,2 -0.6,2.4 0.8,4.6 l 1.6,2.4 -2.1,2.3 c -1.2,1.3 -2.3,2.3 -2.6,2.3 -0.2,0 -1.4,-0.7 -2.6,-1.6 -1.5,-1.1 -2.6,-1.5 -3.6,-1.3 -1.4,0.3 -1.7,-0.1 -3.6,-4.6 l -2,-4.7 1.4,-1 c 1.7,-1.2 3,-4.3 2.7,-6.3 -0.8,-4.5 -7.2,-6.1 -10.2,-2.6 -2.1,2.5 -1.8,6.4 0.8,8.5 l 1.7,1.4 -2.2,4.9 c -1.9,4.4 -2.3,4.9 -3.6,4.5 -1,-0.3 -2.2,0.1 -3.6,1.2 -1.2,0.9 -2.3,1.6 -2.4,1.6 -0.2,0 -1.3,-1 -2.5,-2.3 l -2.2,-2.3 1.5,-2.8 c 1.4,-2.5 1.4,-2.9 0.6,-4.6 -0.7,-1.4 -1.5,-2 -3.6,-2.4 l -2.7,-0.6 v -6.9 l 2.6,-0.4 c 2,-0.3 2.8,-0.8 3.5,-2.2 1.2,-2.4 1.2,-2.8 -0.7,-5.6 l -1.6,-2.3 2,-2.1 c 2.4,-2.5 2.8,-2.5 5.7,-0.6 2,1.4 2.4,1.4 4.3,0.6 1.4,-0.6 2.2,-1.4 2.5,-2.6 0.9,-4.1 0.8,-4 4.4,-4 h 3.4 l 0.4,2.9 c 0.4,2.5 0.7,3 2.5,3.7 1.9,0.8 2.3,0.7 4.3,-0.7 1.2,-0.8 2.5,-1.5 2.9,-1.5 0.4,0 1.6,1 2.8,2.2 l 2.1,2.2 -1.8,2.7 c -1.7,2.6 -1.7,2.7 -0.7,4.8 0.9,1.8 1.4,2.2 4,2.6 l 3,0.4 z"
   id="path832" />
		<path
   class="st0"
   d="m 498.2,286.9 c -13,3.3 -22.1,12.7 -25,25.8 -3.1,14 4.5,29.8 17.6,36.4 1.2,0.6 4.2,1.6 6.7,2.3 5.7,1.5 10.5,1.6 15.5,0.3 17.8,-4.5 28.9,-21.7 25.2,-38.9 -3.8,-18.3 -22.5,-30.4 -40,-25.9 z m 29.8,32 c 0,3.6 -0.6,4.1 -4.2,4.2 -0.9,0 -1.7,0.8 -2.4,2.2 -1,2.1 -1,2.3 0.5,4.3 0.9,1.2 1.6,2.4 1.6,2.8 0,0.4 -1,1.7 -2.2,2.9 l -2.2,2.2 -2.4,-1.7 c -1.6,-1.1 -2.9,-1.6 -3.9,-1.3 -1,0.3 -1.5,0 -1.8,-0.8 -0.2,-0.7 -1.1,-2.9 -2.1,-5 l -1.6,-3.8 1.3,-1.1 c 4.8,-3.8 2.9,-10.7 -2.9,-10.7 -5.7,0 -8.2,6.2 -4.1,10 l 2,1.8 -2.1,4.8 c -1.9,4.4 -2.2,4.8 -3.6,4.5 -1,-0.3 -2.2,0.1 -3.6,1.3 v 0 c -1.2,0.9 -2.4,1.6 -2.7,1.6 -0.3,0 -1.5,-1 -2.7,-2.2 l -2.2,-2.2 1.8,-2.7 c 1.7,-2.5 1.7,-2.8 0.9,-4.6 -0.7,-1.5 -1.6,-2.1 -3.8,-2.6 l -2.8,-0.7 -0.2,-3.3 -0.2,-3.3 3,-0.4 c 2.5,-0.4 3.1,-0.8 4,-2.6 1,-2.1 1,-2.2 -0.8,-4.8 l -1.8,-2.7 2.3,-2.3 c 2.1,-2.1 2.4,-2.2 3.8,-1.4 0.8,0.5 2,1.2 2.7,1.7 1,0.6 1.7,0.6 3.3,-0.1 1.7,-0.7 2.1,-1.3 2.5,-3.8 l 0.4,-2.9 h 6.8 l 0.7,2.9 c 0.6,2.3 1.1,3 2.8,3.7 1.9,0.8 2.3,0.7 4.3,-0.6 2.8,-1.9 3.3,-1.9 5.3,0.3 2.1,2.2 2.1,2.9 0.4,5.3 -1,1.3 -1.2,2.4 -0.9,3.7 0.5,2.4 1.3,3 4.3,3.6 l 2.4,0.4 v 3.4 z"
   id="path834" />
	</g>
	<path
   class="st0"
   d="m 660.9,474.9 c -2.4,-8 -9.4,-13.4 -17.8,-13.4 -20.6,-0.1 -41.2,-0.1 -61.8,0 -4.6,0 -8.5,-1.3 -11.2,-5.1 -2.2,-3.1 -2.2,-6.6 -2.2,-10.1 0,-37.7 0,-75.4 0,-113.1 v -5.4 c -6.3,3.4 -6.3,3.6 -12.6,3.3 -5,-0.2 -7.7,1.9 -9.8,6.5 -8.6,19.6 -29.8,30 -50.6,25.3 -19.8,-4.5 -33.5,-21 -34.7,-41.8 -0.2,-3 -0.7,-5.8 -4.4,-5.2 -3,0.5 -2.9,3.3 -3,5.8 -1.4,21.3 -16.3,38.1 -37.1,41.7 -20.3,3.5 -40.3,-7.4 -48.6,-26.8 -0.8,-1.9 -1,-2.2 -3.2,-4.2 -6.4,-4.8 -14.3,-3.9 -18.1,-0.2 -1.5,1 -3.1,2.8 -4.2,5.3 -8.6,19.6 -29.8,30 -50.6,25.3 -19.8,-4.5 -33.5,-21 -34.7,-41.8 -0.2,-3 -0.7,-5.8 -4.4,-5.2 -3,0.5 -2.9,3.3 -3,5.8 -1.4,21.3 -16.3,38.1 -37.1,41.7 -20.3,3.5 -40.3,-7.4 -48.6,-26.8 -1.7,-4 -4.3,-5.6 -8.4,-5.5 -4.3,0.2 -8.6,0.2 -12.9,-2.8 v 5.8 c 0,37.7 0,75.4 0,113.1 0,10.4 -3.9,14.2 -14.2,14.2 -20.1,0 -40.3,0 -60.4,0 -12.1,0 -20.3,7.6 -20.3,18.8 0,11.3 8.1,18.9 20.1,18.9 21.2,0 42.5,0 63.7,0 24,0 43.3,-16 47.9,-39.5 1.5,-7.6 0.7,-15.3 0.9,-22.9 0.1,-3.6 -0.7,-8.4 4.6,-8.2 5,0.1 4.1,4.8 4.1,8.2 0.1,14.9 -0.2,29.7 0.4,44.5 0.4,10.3 8.8,17.4 18.8,17.1 9.9,-0.3 17.5,-7.9 17.7,-18.4 0.3,-14.5 0.2,-29.1 0.2,-43.6 0,-1.6 0,-3.2 0.3,-4.8 0.5,-2 2,-3.4 4.1,-3.4 2.1,0 3.6,1.4 4,3.5 0.3,1.5 0.3,3.2 0.3,4.8 0.2,14.5 0.2,29.1 0.6,43.6 0.3,10.9 8.2,18.5 18.6,18.3 2.6,0 4.9,-0.6 7.1,-1.5 6.5,-2.8 10.8,-9.3 10.8,-17.6 0,-5.9 0,-11.9 0,-17.8 0,-6 0,-12.1 0,-18.1 0,-3.4 0,-6.7 0,-10.1 0,-2.8 1.4,-4.9 4.1,-5 3.1,-0.1 4.4,2.1 4.5,5 0,1.3 0,2.6 0,3.8 0,8.1 0,16.2 0,24.3 0,6 0.1,11.9 0.2,17.9 0.2,10.9 7.5,18.6 17.6,19 10.7,0.4 19,-7.5 19.2,-18.8 0.1,-6 0.1,-12 0.1,-18 0,-9.2 0,-18.3 0,-27.5 0,-3.1 1.1,-5.7 4.4,-5.7 3.3,0 4.3,2.7 4.3,5.7 0,6.2 -0.1,29.4 0.1,35.6 0.1,3 0.5,5.9 1.2,8.7 0.1,0.4 0.2,0.7 0.3,1.1 7.3,28.2 47.7,27.8 54.5,-0.6 0,-0.2 0.1,-0.3 0.1,-0.5 0.1,-0.6 0.3,-1.2 0.4,-1.8 1.5,-7.6 0.7,-32.2 0.9,-39.9 0.1,-3.6 -0.7,-8.4 4.6,-8.2 5,0.1 4.1,4.8 4.1,8.2 0.1,8.2 0,16.5 0,24.7 0,6.6 0.1,13.2 0.3,19.8 0.4,10.3 8.8,17.4 18.8,17.1 9.9,-0.3 17.5,-7.9 17.7,-18.4 0.1,-6.2 0.2,-12.3 0.2,-18.5 0,-8.4 0,-16.7 0.1,-25.1 0,-1.6 0,-3.2 0.3,-4.8 0.5,-2 2,-3.4 4.1,-3.4 2.1,0 3.6,1.4 4,3.5 0.3,1.5 0.3,3.2 0.3,4.8 0.1,8.3 0.2,16.7 0.3,25 0.1,6.2 0.2,12.4 0.3,18.5 0.2,7.6 4.1,13.6 10,16.4 2.6,1.3 5.5,1.9 8.7,1.9 10.4,-0.2 17.9,-8.1 17.9,-19.1 0,-12 0,-24 0,-35.9 0,-3.4 0,-6.7 0,-10.1 0,-2.8 1.4,-4.9 4.1,-5 3.1,-0.1 4.4,2.1 4.5,5 0,1.3 0,2.6 0,3.8 0.1,14.1 0,28.1 0.2,42.2 0.2,10.9 7.5,18.6 17.6,19 10.7,0.4 19,-7.5 19.2,-18.8 0.2,-15.2 0.1,-30.3 0.1,-45.5 0,-3.1 1.1,-5.7 4.4,-5.7 3.3,0 4.3,2.7 4.3,5.7 0,6.2 -0.1,12.5 0.1,18.7 0.9,25.2 22.6,46.3 47.7,46.4 21.6,0.1 43.1,0 64.7,0.1 4,0 7.6,-0.9 10.8,-3.2 7.7,-4.2 10.8,-12.7 8.4,-20.6 z M 340.6,355.2 H 368 c 1.7,0 3.1,1.4 3.1,3.1 0,1.7 -1.4,3.1 -3.1,3.1 h -27.4 c -1.7,0 -3.1,-1.4 -3.1,-3.1 0,-1.7 1.4,-3.1 3.1,-3.1 z m 27.4,64.2 h -27.4 c -1.7,0 -3.1,-1.4 -3.1,-3.1 0,-1.7 1.4,-3.1 3.1,-3.1 H 368 c 1.7,0 3.1,1.4 3.1,3.1 0,1.7 -1.4,3.1 -3.1,3.1 z M 390.6,398 c 0,3.7 -3,6.6 -6.6,6.6 h -59.2 c -3.7,0 -6.6,-3 -6.6,-6.6 v 0 c 0,-3.7 3,-6.6 6.6,-6.6 H 384 c 3.6,0 6.6,3 6.6,6.6 z m 0,-20.6 c 0,3.7 -3,6.6 -6.6,6.6 h -59.2 c -3.7,0 -6.6,-3 -6.6,-6.6 v 0 c 0,-3.7 3,-6.6 6.6,-6.6 H 384 c 3.6,0 6.6,3 6.6,6.6 z"
   id="path838" />
</g>
</svg>
