<?xml version="1.0" encoding="UTF-8" standalone="no"?>
<svg
   version="1.1"
   id="svg2"
   xml:space="preserve"
   width="120"
   height="120"
   viewBox="0 0 120 120"
   sodipodi:docname="logo copy.svg"
   inkscape:version="1.1 (c4e8f9e, 2021-05-24)"
   xmlns:inkscape="http://www.inkscape.org/namespaces/inkscape"
   xmlns:sodipodi="http://sodipodi.sourceforge.net/DTD/sodipodi-0.dtd"
   xmlns="http://www.w3.org/2000/svg"
   xmlns:svg="http://www.w3.org/2000/svg"
   xmlns:rdf="http://www.w3.org/1999/02/22-rdf-syntax-ns#"
   xmlns:cc="http://creativecommons.org/ns#"
   xmlns:dc="http://purl.org/dc/elements/1.1/"><metadata
     id="metadata8"><rdf:RDF><cc:Work
         rdf:about=""><dc:format>image/svg+xml</dc:format><dc:type
           rdf:resource="http://purl.org/dc/dcmitype/StillImage" /></cc:Work></rdf:RDF></metadata><defs
     id="defs6"><clipPath
       clipPathUnits="userSpaceOnUse"
       id="clipPath18"><path
         d="M 0,0 H 184.252 V 184.252 H 0 Z"
         id="path16" /></clipPath></defs><sodipodi:namedview
     pagecolor="#ffffff"
     bordercolor="#666666"
     borderopacity="1"
     objecttolerance="10"
     gridtolerance="10"
     guidetolerance="10"
     inkscape:pageopacity="0"
     inkscape:pageshadow="2"
     inkscape:window-width="1920"
     inkscape:window-height="1027"
     id="namedview4"
     inkscape:pagecheckerboard="0"
     showgrid="false"
     fit-margin-top="0"
     fit-margin-left="0"
     fit-margin-right="0"
     fit-margin-bottom="0"
     inkscape:zoom="3.4477239"
     inkscape:cx="100.06602"
     inkscape:cy="29.149666"
     inkscape:window-x="960"
     inkscape:window-y="25"
     inkscape:window-maximized="0"
     inkscape:current-layer="g20" /><g
     id="g10"
     inkscape:groupmode="layer"
     inkscape:label="logoHackuariumText_vectorgraphics"
     transform="matrix(1.3333333,0,0,-1.3333333,-38.193468,209.57842)"><g
       id="g12"><g
         id="g14"
         clip-path="url(#clipPath18)"><g
           id="g20"
           transform="translate(32.3184,51.0908)"><path
             d="m -18.49046,16.315112 c -1.365,0.455 -2.727,1.835 -3.294,3.338 -0.876,2.32 -0.196,5.026 1.641,6.531 1.632,1.338 1.372,1.315 13.5669998,1.315 7.28499999,0 11.183,0.07 11.554,0.211 0.761,0.288 1.644,1.144 1.975,1.918 0.226,0.528 0.274,4.008 0.274,20.041 v 19.4 l 0.646,-0.461 c 0.542,-0.386 0.948,-0.472 2.5130002,-0.53 2.305,-0.087 2.91,-0.376 3.384,-1.621 1.32,-3.46 4.942,-6.787 8.663,-7.959 2.098,-0.66 5.258,-0.751 7.503,-0.215 5.827,1.39 10.143,6.399 10.617,12.321 0.132,1.645 0.436,2.215 1.182,2.215 0.636,0 1.073,-0.724 1.075,-1.784 0.002,-1.49 0.751,-4.151 1.644,-5.842 1.148,-2.173 3.464,-4.489 5.637,-5.637 5.253,-2.774 11.663,-1.99 16.044,1.964 1.39,1.254 2.945,3.441 3.475,4.883 0.47,1.28 0.953,1.527 3.224,1.649 1.705,0.091 1.999,0.164 2.64,0.653 l 0.722,0.55 0.053,-19.569 0.054,-19.569 0.599,-0.864 c 0.35,-0.502 0.966,-1.046 1.483,-1.308 l 0.884,-0.446 h 10.766 c 11.944,0 11.709,0.021 13.34,-1.315 2.586,-2.119 2.709,-6.24 0.256,-8.629 -1.657,-1.614 -1.41,-1.587 -14.214,-1.587 -12.469,0 -13.044,0.046 -15.703,1.277 -3.737,1.725 -6.487,4.575 -7.978,8.266 -0.811,2.007 -1.062,3.869 -1.062,7.877 0,3.63 -0.006,3.674 -0.488,4.156 -0.768,0.768 -1.716,0.583 -2.262,-0.443 -0.165,-0.307 -0.231,-2.692 -0.231,-8.265 0,-8.704 -0.044,-9.072 -1.253,-10.545 -2.601,-3.176 -7.478,-2.589 -9.442,1.131 l -0.537,1.019 -0.099,8.416 -0.1,8.416 -0.469,0.38 c -0.623,0.506 -1.256,0.479 -1.771,-0.068 -0.415,-0.442 -0.424,-0.605 -0.483,-8.796 l -0.059,-8.348 -0.53,-1.004 c -1.138,-2.156 -2.79,-3.174 -5.14,-3.166 -1.297,0.009 -1.64,0.087 -2.584,0.617 -0.599,0.336 -1.379,0.989 -1.734,1.449 -1.117,1.454 -1.197,2.104 -1.325,10.75 -0.107,7.224 -0.146,7.892 -0.484,8.349 -0.493,0.666 -1.415,0.756 -1.929,0.19 -0.365,-0.403 -0.399,-0.936 -0.586,-9.004 l -0.199,-8.578 -0.529,-0.895 c -1.166,-1.973 -2.725,-2.883 -4.937,-2.883 -2.213,0 -3.772,0.91 -4.938,2.883 l -0.529,0.895 -0.1,8.481 -0.099,8.482 -0.482,0.513 c -0.572,0.608 -1.188,0.653 -1.832,0.133 -0.459,-0.371 -0.471,-0.467 -0.591,-4.721 -0.101,-3.605 -0.196,-4.61 -0.561,-5.93 -1.158,-4.195 -4.324,-7.943 -8.236,-9.749 -2.7040002,-1.247 -3.2020002,-1.286 -16.0690002,-1.272 -10.1389998,0.011 -11.7079998,0.054 -12.5559998,0.334"
             style="fill:#501288;fill-opacity:1;fill-rule:nonzero;stroke:none"
             id="path22" /></g><g
           id="g24"
           transform="translate(65.94264,123.05191)"><path
             d="m 0,0 -0.06,-1.03 -0.914,-0.177 c -0.797,-0.154 -0.946,-0.264 -1.16,-0.858 -0.224,-0.619 -0.201,-0.75 0.255,-1.439 l 0.501,-0.757 -0.66,-0.72 c -0.362,-0.396 -0.72,-0.721 -0.795,-0.721 -0.075,0 -0.434,0.228 -0.798,0.506 -0.454,0.346 -0.81,0.47 -1.13,0.393 -0.423,-0.103 -0.528,0.03 -1.118,1.41 l -0.651,1.523 0.423,0.296 c 0.534,0.375 0.944,1.331 0.828,1.936 -0.263,1.38 -2.244,1.882 -3.172,0.804 -0.662,-0.77 -0.542,-1.985 0.26,-2.624 l 0.54,-0.431 -0.668,-1.52 c -0.603,-1.372 -0.713,-1.508 -1.13,-1.404 -0.318,0.08 -0.669,-0.041 -1.121,-0.386 -0.363,-0.277 -0.7,-0.502 -0.75,-0.502 -0.051,0 -0.397,0.315 -0.77,0.7 l -0.679,0.7 0.468,0.856 c 0.426,0.779 0.443,0.908 0.19,1.436 -0.213,0.446 -0.474,0.622 -1.12,0.759 l -0.843,0.177 v 1.063 1.062 l 0.804,0.129 c 0.612,0.098 0.873,0.262 1.094,0.688 0.386,0.748 0.37,0.878 -0.206,1.726 l -0.494,0.728 0.633,0.653 c 0.754,0.778 0.856,0.789 1.751,0.187 0.631,-0.424 0.748,-0.442 1.334,-0.2 0.436,0.181 0.681,0.442 0.764,0.814 0.284,1.276 0.248,1.244 1.368,1.244 h 1.057 l 0.135,-0.9 c 0.115,-0.768 0.227,-0.937 0.768,-1.161 0.575,-0.238 0.697,-0.219 1.325,0.203 0.381,0.256 0.788,0.466 0.906,0.466 0.117,0 0.506,-0.303 0.865,-0.673 L -1.317,4.282 -1.864,3.456 C -2.393,2.656 -2.4,2.607 -2.095,1.967 -1.825,1.4 -1.647,1.285 -0.86,1.167 L 0.06,1.03 Z m 3.324,0.759 c -0.706,6.277 -6.697,10.643 -12.535,9.136 -4.825,-1.246 -8.043,-5.273 -8.043,-10.067 0,-4.626 3.24,-8.7 7.951,-9.998 1.414,-0.39 3.855,-0.272 5.554,0.267 4.383,1.391 7.575,6.203 7.073,10.662"
             style="fill:#501288;fill-opacity:1;fill-rule:nonzero;stroke:none"
             id="path26" /></g><g
           id="g28"
           transform="translate(95.99784,123.01681)"><path
             d="m 0,0 c 0,-1.107 -0.178,-1.282 -1.305,-1.291 -0.269,-0.001 -0.52,-0.234 -0.732,-0.677 -0.311,-0.652 -0.305,-0.698 0.162,-1.331 0.267,-0.36 0.483,-0.755 0.483,-0.876 0,-0.121 -0.309,-0.521 -0.688,-0.888 l -0.689,-0.667 -0.753,0.522 c -0.503,0.349 -0.903,0.485 -1.198,0.408 -0.32,-0.084 -0.478,-0.013 -0.571,0.254 -0.07,0.204 -0.356,0.895 -0.636,1.535 l -0.507,1.164 0.411,0.326 c 1.474,1.172 0.885,3.3 -0.913,3.3 -1.768,0 -2.554,-1.932 -1.257,-3.091 l 0.631,-0.565 -0.641,-1.502 c -0.582,-1.36 -0.687,-1.491 -1.11,-1.389 -0.319,0.078 -0.675,-0.046 -1.128,-0.393 h -10e-4 c -0.365,-0.277 -0.741,-0.505 -0.836,-0.505 -0.095,0 -0.473,0.31 -0.84,0.688 l -0.667,0.688 0.551,0.832 c 0.516,0.781 0.533,0.87 0.264,1.436 -0.22,0.467 -0.483,0.651 -1.165,0.815 l -0.879,0.212 -0.059,1.03 -0.06,1.03 0.919,0.138 c 0.787,0.118 0.965,0.233 1.235,0.799 0.306,0.641 0.298,0.689 -0.233,1.493 l -0.55,0.83 0.717,0.717 c 0.661,0.662 0.751,0.695 1.163,0.44 0.245,-0.152 0.625,-0.386 0.844,-0.52 0.317,-0.195 0.525,-0.19 1.031,0.025 0.539,0.23 0.653,0.404 0.768,1.169 l 0.135,0.899 h 1.046 1.048 L -5.785,6.16 c 0.183,-0.726 0.348,-0.945 0.869,-1.161 0.587,-0.243 0.703,-0.226 1.335,0.2 0.88,0.592 1.008,0.584 1.656,-0.093 0.643,-0.67 0.658,-0.895 0.121,-1.65 -0.297,-0.418 -0.378,-0.741 -0.285,-1.16 0.16,-0.729 0.408,-0.934 1.344,-1.109 L 0,1.048 Z m 3.158,1.927 c -1.183,5.639 -6.996,9.389 -12.409,8.007 -4.031,-1.03 -6.858,-3.937 -7.758,-7.978 -0.967,-4.348 1.392,-9.238 5.446,-11.289 0.363,-0.184 1.302,-0.503 2.086,-0.708 1.756,-0.46 3.262,-0.49 4.814,-0.093 5.507,1.405 8.945,6.708 7.821,12.061"
             style="fill:#501288;fill-opacity:1;fill-rule:nonzero;stroke:none"
             id="path30" /></g><g
           id="g32"
           transform="translate(107.66284,125.75891)"><path
             d="m 0,0 c -0.444,0.346 -0.889,0.45 -2.159,0.508 -1.355,0.062 -1.727,0.159 -2.426,0.63 -0.549,0.371 -0.916,0.813 -1.096,1.32 -0.802,2.265 -3.448,5.318 -5.788,6.681 -0.709,0.413 -2.005,0.994 -2.88,1.292 l -1.589,0.542 -17.175,0.055 c -16.938,0.054 -17.199,0.049 -18.884,-0.368 -2.193,-0.542 -4.502,-1.764 -6.107,-3.234 -1.375,-1.259 -3.133,-3.753 -3.495,-4.96 -0.162,-0.541 -0.473,-0.922 -1.097,-1.342 -0.765,-0.517 -1.044,-0.587 -2.309,-0.587 -1.037,0 -1.652,-0.109 -2.203,-0.39 l -0.764,-0.39 0.133,1.132 c 0.805,6.851 3.855,13.677 8.413,18.83 5.021,5.676 11.371,9.363 18.918,10.983 2.302,0.494 2.867,0.538 6.978,0.538 4.163,0.001 4.651,-0.038 7.056,-0.56 C -12.945,27.745 -2.641,17.415 0.224,3.916 0.717,1.592 0.954,-0.461 0.729,-0.446 0.636,-0.44 0.309,-0.239 0,0"
             style="fill:#501288;fill-opacity:1;fill-rule:nonzero;stroke:none"
             id="path34" /></g><g
           id="g72"
           transform="translate(142.6875,43.1318)" /></g></g></g></svg>
