<?xml version="1.0" encoding="utf-8"?>
<!-- Generator: Adobe Illustrator 24.1.1, SVG Export Plug-In . SVG Version: 6.00 Build 0)  -->
<svg version="1.1" id="Capa_1" xmlns="http://www.w3.org/2000/svg" xmlns:xlink="http://www.w3.org/1999/xlink" x="0px" y="0px"
	 viewBox="0 0 708.7 708.7" style="enable-background:new 0 0 708.7 708.7;" xml:space="preserve">
<style type="text/css">
	.st0{fill:#501287;}
	.st1{fill:#501288;}
	.st2{fill:#2B0D51;}
	.st3{fill:#7A7A7A;}
	.st4{fill:#6D6D6D;}
	.st5{fill:#4F4F4F;}
	.st6{fill:#999999;}
	.st7{display:none;fill:#FFF800;}
	.st8{fill:#FFF800;}
	.st9{clip-path:url(#SVGID_2_);}
	.st10{clip-path:url(#SVGID_4_);}
	.st11{fill:#FEFEFE;}
	.st12{fill:#FEFEFE;stroke:#501287;stroke-width:9.9698;stroke-miterlimit:10;}
	.st13{fill:#FEFEFE;stroke:#501287;stroke-width:9.9698;stroke-linecap:round;stroke-miterlimit:10;}
</style>
<g>
	<g>
		<path class="st0" d="M205.9,284.5c5.7,4,11.5,3.9,17.3,3.7c5.5-0.2,9,2,11.3,7.3c11.1,26,38,40.7,65.2,35.9
			c27.9-4.9,47.9-27.4,49.8-56c0.2-3.3,0-7.1,4-7.7c5.1-0.8,5.7,2.9,6,7c1.6,27.9,20.1,50,46.6,56.1c27.9,6.4,56.3-7.7,67.9-34
			c2.7-6.2,6.4-9,13.1-8.7c8.4,0.3,8.4,0.1,16.9-4.5c0,2.6,0,4.9,0,7.2c0,50.6,0,101.2,0,151.8c0,4.7,0,9.5,2.9,13.6
			c3.7,5.2,8.9,6.9,15.1,6.9c27.7-0.1,55.3-0.1,83,0c11.3,0,20.7,7.3,23.9,18c3.2,10.6-0.9,22.1-10.1,28.3c-4.4,3-9.2,4.3-14.6,4.2
			c-29-0.1-57.9,0.1-86.9-0.1c-33.8-0.2-62.8-28.5-64.1-62.3c-0.3-8.4-0.2-16.7-0.2-25.1c0-4.2-1.4-7.7-5.8-7.7
			c-4.5,0-5.9,3.5-5.9,7.6c0,20.4,0.2,40.8-0.1,61.1c-0.2,15.2-11.4,25.9-25.8,25.3c-13.5-0.6-23.4-10.9-23.7-25.5
			c-0.3-18.9-0.2-37.7-0.3-56.6c0-1.7,0-3.4,0-5.1c-0.2-3.9-2-6.9-6.1-6.8c-3.7,0.1-5.5,3-5.5,6.7c0,4.5,0,9,0,13.5
			c0,16.1,0,32.2,0,48.3c-0.1,14.7-10.1,25.3-24.1,25.6c-14,0.3-24.7-9.9-25-24.6c-0.5-19.5-0.5-39-0.8-58.5c0-2.1,0-4.3-0.4-6.4
			c-0.6-2.8-2.6-4.6-5.4-4.6c-2.9,0-4.9,1.8-5.6,4.5c-0.5,2-0.4,4.3-0.4,6.4c-0.1,19.5,0,39-0.3,58.5c-0.3,14-10.4,24.2-23.8,24.7
			c-13.5,0.5-24.8-9.1-25.3-22.9c-0.7-19.9-0.3-39.9-0.5-59.8c0-4.6,1.2-10.8-5.5-11c-7.2-0.2-6.1,6.2-6.2,11.1
			c-0.3,10.3,0.8,20.6-1.3,30.8c-6.2,31.6-32.2,53-64.4,53c-28.5,0-57.1,0-85.6,0c-16.1,0-27-10.3-27-25.4
			c0-14.9,11.1-25.2,27.3-25.2c27,0,54,0,81.1,0c13.9,0,19-5.1,19.1-19c0-50.6,0-101.2,0-151.8C205.9,290,205.9,287.7,205.9,284.5z"
			/>
		<path class="st0" d="M504.2,263.1c-5.9-4.7-11.6-5-17.4-5.2c-5.3-0.2-9.4-3-11.8-8.2c-11-24.3-29.9-36.9-56.6-37.1
			c-42.7-0.2-85.3-0.3-128,0c-26.4,0.2-45.2,12.8-56.1,36.8c-2.7,6-7.2,8.7-13.5,8.6c-4.7,0-9.5-0.2-13.6,3.2
			c-5.1-29.8,25.2-84.9,61.7-109.6c51.1-34.6,105.1-37.6,159.1-8.1C474.1,168.8,498.3,209.6,504.2,263.1z"/>
		<path class="st1" d="M289.4,227.6c-24.5,0.1-44.5,20.2-44.5,44.8c0,24.8,20.2,44.8,45.2,44.7c24.6-0.1,44.6-20.3,44.6-44.8
			C334.6,247.4,314.3,227.5,289.4,227.6z M319.5,271.7c-0.1,2.6-0.3,4.2-3.4,5c-6.8,1.6-8.1,4.7-4.6,10.2c1.9,2.9,1.1,4.4-1,6.5
			c-2,2-3.6,2.7-6,0.7c-3.2-2.7-9-1.6-10-7.9c-0.6-3.7-3.1-6.7,1.2-10c2.4-1.9,2.2-5.4,0.5-8.3c-1.6-2.8-4.1-4.3-7.7-4.3
			c-3,0.1-5.3,1.8-6.8,4.7c-1.6,3.2-0.9,6.2,1.3,8.9c3.7,4.6,0.5,13.5-5.1,14.8c-1.6,0.4-3.2,1.2-4.5,2.3c-2.6,2.1-4.1,0.7-5.9-1.1
			c-1.9-1.8-2.7-3.3-1.1-6c3.6-6.1,2.6-8.6-4.7-10.6c-2.9-0.8-3-2.4-3.1-4.7c0-2.5,0.1-4.3,3.2-5.2c7.2-2.1,8.2-4.4,4.5-10.6
			c-1.7-2.8-0.7-4.1,1.1-6c1.9-1.9,3.3-2.7,6-1c5.9,3.6,8.9,2.5,10.4-3.9c0.8-3.2,2.3-4,5.3-4c2.8,0,4,0.9,4.8,3.8
			c1.6,6.5,4.7,7.7,10.5,4.1c2.7-1.7,4.1-1.1,5.9,0.9c1.6,1.8,3.2,3,1.4,5.9c-3.9,6.4-2.9,8.9,4.1,10.8
			C318.9,267.6,319.6,269,319.5,271.7z"/>
		<path class="st1" d="M419.7,227.6c-25-0.1-45,19.9-45,44.9c0,24.6,19.9,44.5,44.6,44.5c24.9,0.1,45.1-20,45.1-44.8
			C464.4,247.7,444.2,227.6,419.7,227.6z M445.5,276.9c-5.9,1.2-7.3,4.6-4.1,9.6c1.8,2.9,1.8,4.6-0.7,7.1c-2.4,2.4-4.4,2.4-6.5,0.2
			c-2.4-2.6-7.6-0.1-8.7-5.6c-1-4.6-4.4-8.8,1-12.9c0.8-0.6,0.8-2.3,1.1-3.3c-0.3-4.2-2.2-6.9-5.8-8.1c-3.4-1.1-6.4-0.2-8.7,2.5
			c-2.5,2.9-2.7,6.2-0.7,9.5c4.5,7.4,2.4,13.5-5.7,16.3c-2.6,0.9-4.4,5.5-8.2,1.7c-2.3-2.3-3.8-4-1.4-7.5c3.4-4.7,1.8-8.4-4-9.7
			c-3.2-0.7-4.1-1.9-4.2-5.1c0-3.1,1-4.4,4.1-5.2c6.1-1.5,7.3-4.7,3.9-10.1c-1.9-2.9-1.1-4.4,1-6.5c2-2,3.4-2.4,6-0.7
			c5.7,3.6,8.7,2.4,10.3-4.3c0.7-2.9,2-3.7,4.8-3.7c3,0,4.5,0.6,5.3,4c1.4,6.1,4.8,7.5,10,4.2c2.7-1.7,4.3-1.6,6.6,0.7
			c2.3,2.3,2.4,3.9,0.7,6.6c-3.3,5.3-2.1,8.5,4.1,10c3.1,0.8,4.1,2.1,4.1,5.2C449.7,275.1,448.6,276.2,445.5,276.9z"/>
	</g>
	<g>
		<path class="st2" d="M536,427.1c-4.5,15.2-15.2,25-29.9,31.4c-12.5,5.4-25.6,8.9-39,11.7c-2.9,0.6-4.1,1.7-4.1,4.7
			c-0.5,24.6-2.1,49.1-3.9,73.7c-0.7,9.6-1.6,19.1-2.7,28.6c-0.7,6.5-6.1,9.7-12.5,7.5c-8.4-2.9-16.8-5.2-25.9-4.3
			c-4.1,0.4-8.1,1.5-12.1,2.4c-12.5,3-24.7,2-36.7-2.6c-4.8-1.9-6.7-4.7-6.4-9.7c0.2-3.8,0.5-7.6,1-11.4c0.3-2.2-0.5-2.7-2.8-2.6
			c-11.5,0.5-22.8-0.4-33.6-4.4c-7-2.6-13.3-6.1-17.7-12.1c-2.5-3.3-2.5-6.2,0.4-8.7c10.7-9.2,16.5-21.2,21.6-33.6
			c1.9-4.6,3.3-9.4,5.2-14c1.1-2.6,0.4-3-2.3-3.1c-18.3-0.3-36.6-1.4-54.8-3.5c-24.5-2.8-48.9-6.5-72.3-14.6
			c-10.4-3.6-20.6-7.6-28.5-15.3c-12.3-12-15.7-26.6-13.1-42.8c0.7-4.3,1.6-8.6,3.4-12.7c1-2.3,0.7-4.3-0.2-6.6
			c-5.6-13.7-6.1-27.4,1-40.8c4.3-8.2,16.4-14.3,25.4-13.1c7.9,1,13,6.4,12.8,14.7c-0.1,7.3,0.5,10.2,11,13.4
			c14.3,4.3,29.1,5.7,44,6.9c27.3,2.1,54.7,3.8,82.1,4c5.9,0,11.9,0,17.8-0.1c1.2,0,2.3,0.1,2.7-1.6c2.9-13.2,12.7-20.1,25.2-23.8
			c17.1-5.1,34.2-4.4,50.7,2.7c7.4,3.2,13.3,8,16.8,15.1c0.4,0.8,0.6,1.7,2,1.5c9.4-1.6,18.9-2.7,27.7-6.7c4.1-1.8,6.2-4.6,5.9-9
			c-0.1-1.2-0.1-2.3,0-3.5c1.1-11,9.5-16.1,21.4-13c12.7,3.4,18.7,12.3,21.2,23.9c0.4,7.4,0.6,11.2,0.4,15.5c0.1,5-0.5,9.8-2.9,14.4
			c-0.7,1.4-1,2.9-0.5,4.4c2.2,5.7,3.1,11.7,3.7,17.7C537.7,419.5,536.5,425.2,536,427.1z"/>
		<path class="st3" d="M380.4,441.6c-0.5-22.3-1.1-43.8-2.6-65.2c-0.6-8.8,3.1-15.2,12.4-18.7c16.9-6.6,33.8-6.2,50,2.3
			c4.3,2.3,7,5.7,8.2,10.5c3.2,12.3,4.3,24.7,3.7,37.4c-0.8,16.3-0.7,32.6-1.1,48.8c-0.2,10.5-0.7,21-0.9,31.5
			c-0.1,2.5-0.8,3.5-3.7,3.5c-21-0.1-42-0.1-62.9,0c-2.8,0-3.7-0.6-3.6-3.4C380.8,472.4,380.4,456.6,380.4,441.6z"/>
		<path class="st4" d="M366.8,406.9c0.1,1,0.4,2,0.4,3.1c0.4,18.6,1,37.2,0.9,55.7c0,2.8-1,3.1-3.5,3.2
			c-34.1,0.6-68.1-0.8-101.8-5.8c-19.4-2.8-38.6-6.6-56.8-13.8c-8.7-3.4-16.9-7.4-22.3-15.4c-7.1-10.5-7.1-21.7-4.2-33.3
			c0.3-1.3,0.8-1.4,2-0.8c1.6,0.8,3.3,1.5,4.9,2.1c3.8,1.4,6.8,0.5,9.2-2.6c1.5-1,3-0.4,4.5,0c24.6,7.2,49.8,10.5,75.3,13
			c25.9,2.5,51.8,1.8,77.7,2c3.3,0,6.5-0.8,9.8-0.7c2,0,2.7-1.1,2.8-2.9C365.6,409.4,365.5,407.9,366.8,406.9z"/>
		<path class="st3" d="M366.8,406.9c-0.1,2.4,0.5,5.3-0.7,7.1c-1.3,1.8-4.6,0.2-6.9,0.8c-4.3,1.1-8.7,0.5-13,0.6
			c-10.5,0.1-21.1,0-31.6,0c-15.4,0-30.8-1.2-46.2-2.7c-20.1-2-40.1-4.8-59.7-9.8c-4.4-1.1-8.8-2.3-13.2-3.5
			c0.6-5.5-0.1-6.7-5.5-8.5c-3.3-1.1-5.6-3.3-7.2-6c-6.2-10.7-7.3-21.8-2.6-33.3c2.3-5.5,7.1-7.9,13-8.7c1.7-0.2,2.5,0.5,2.6,2
			c0.1,1.4,0.3,2.8,0.3,4.1c-0.1,8.7,4.6,14.6,12.2,18.6c7.9,4.1,16.7,5.5,25.4,6.8c33.2,4.9,66.8,6.3,100.4,7.2
			c9.6,0.3,19.2,0.2,28.7,0.3c1.7,0,3-0.2,3.1,2.2C366.1,391.7,366.5,399.3,366.8,406.9z"/>
		<path class="st4" d="M413.3,533c10.3,0,20.6,0.1,30.9-0.1c2.7,0,3.6,0.6,3.4,3.2c-1.1,11.4-2,22.7-2.9,34.1
			c-0.1,1.6-0.6,2-2.2,1.4c-13.9-5.1-27.7-3.7-41.7-0.2c-7.8,2-15.6,1.1-23.3-1.2c-1.8-0.5-2.2-1.4-2.1-3
			c0.8-10.6,1.6-21.2,2.3-31.7c0.2-2.4,1.4-2.7,3.5-2.7C391.9,533,402.6,533,413.3,533z"/>
		<path class="st4" d="M486.1,452.9c-7.2,2.8-14.7,4.3-22.1,5.9c0-7.2-0.2-14.2,0-21.2c0.3-11.1-0.3-22.2,0.9-33.2
			c4.5-1.9,9.4-1.6,14.2-2.3c6.3-0.9,12.7-1.6,19-2.8c2.8,0,5.5-2,8.4-0.5c1.1,2.1,2.8,3.4,5.1,4.2c2.8,3.6,2.3,8,2.2,11.9
			c-0.1,9.8-3.5,18.6-10,26.4C499,447,492.8,450.2,486.1,452.9z"/>
		<path class="st5" d="M367.7,493.8c-0.9,16-1.7,32-2.6,48c-0.1,1.2,0.2,2.6-1.9,2.7c-11.7,0.5-23.2,0.1-34.1-4.7
			c-0.3-0.1-0.7-0.3-1-0.4c-5.7-2.7-5.6-2.7-1.8-7.4c10.1-12.5,16.1-26.9,21.3-41.7c1.1-3.1,1.4-7,3.6-8.8c2.3-1.9,6.5-0.6,9.9-0.6
			c6.5-0.1,6.5-0.1,6.4,6.2c0,2.3,0,4.6,0,6.9C367.6,493.8,367.7,493.8,367.7,493.8z"/>
		<path class="st3" d="M498.5,400.2c-11.1,2.1-22.2,3.6-33.5,4.2c-0.3-8.9-0.4-17.7-2-26.5c-0.3-1.7,0.1-2.4,2.1-2.7
			c7.1-0.9,14.1-2.3,20.9-4.2c7.7-2.2,14.6-5.5,18.6-12.7c1-1.9,1.6-3.8,2.1-5.9c0.5-0.6-0.2-1.9,0.9-2c1.3-0.2,1.8,1,2.3,1.9
			c3.8,6.8,4.8,14.2,4.1,21.7c-0.6,7.2-2.7,13.9-7.1,20C504.6,396.9,501.8,398.8,498.5,400.2z"/>
		<path class="st6" d="M414.3,503.4c10.7,0,21.3,0.1,32-0.1c2.6,0,3.2,0.7,2.9,3.1c-0.5,4-0.5,8.1-0.7,12.1
			c-0.1,1.8-0.7,2.6-2.8,2.6c-21.4-0.1-42.9-0.1-64.3,0c-2.2,0-2.6-0.8-2.5-2.6c0.3-3.9,0.5-7.8,0.4-11.8c0-2.6,0.8-3.5,3.7-3.4
			C393.5,503.5,403.9,503.4,414.3,503.4z"/>
		<path class="st5" d="M498.5,400.2c6.2-3.6,9.9-8.8,12-15.3c3.3-10.4,3.9-20.7-1-30.8c-0.5-1.1-1-2.3-1.7-3.6
			c-0.5,0.8-0.9,1.3-1.3,1.9c0-1.4,0-2.8,0.1-4.1c0.2-5.8,1.2-6.5,7-4.4c4.3,1.5,7.6,4.1,9.1,8.3c4.5,12.5,3.6,24.4-4.9,35.3
			c-1.4,1.8-3.3,3-5.6,3.7c-5,1.5-5.8,2.6-5.8,7.7C503.8,399.2,501.1,399.7,498.5,400.2z"/>
		<path class="st5" d="M486.1,452.9c2.1-1.3,4.2-2.6,6.4-3.8c12-6.9,18.2-17,19.9-30.2c0.7-5.5-0.1-10.7-0.9-16
			c4,0,7.5-1.5,10.9-3.4c6,14.9,2.7,33.5-12.2,43.2C502.8,447.5,494.7,450.8,486.1,452.9z"/>
	</g>
</g>
</svg>
